<?xml version="1.0" encoding="UTF-8"?>
<svg xmlns="http://www.w3.org/2000/svg"
version="1.1" baseProfile="full"
viewBox="0 0 32 16"><rect x="0.1" y="0.1" width="0.8" height="0.8" fill="rgba(0, 255, 78, 0.4)" />
<rect x="0.1" y="1.1" width="0.8" height="0.8" fill="rgba(0, 255, 78, 0.4)" />
<rect x="0.1" y="2.1" width="0.8" height="0.8" fill="rgba(0, 137, 255, 0.4)" />
<rect x="0.1" y="3.1" width="0.8" height="0.8" fill="rgba(0, 137, 255, 0.4)" />
<rect x="0.1" y="4.1" width="0.8" height="0.8" fill="rgba(0, 137, 255, 0.4)" />
<rect x="0.1" y="5.1" width="0.8" height="0.8" fill="rgba(61, 95, 90, 0.55)" />
<rect x="0.1" y="6.1" width="0.8" height="0.8" fill="rgba(61, 95, 90, 0.55)" />
<rect x="0.1" y="7.1" width="0.8" height="0.8" fill="rgba(61, 95, 90, 0.55)" />
<rect x="0.1" y="8.1" width="0.8" height="0.8" fill="rgba(61, 95, 90, 0.55)" />
<rect x="0.1" y="9.1" width="0.8" height="0.8" fill="rgba(61, 95, 90, 0.55)" />
<rect x="0.1" y="10.1" width="0.8" height="0.8" fill="rgba(61, 95, 90, 0.55)" />
<rect x="0.1" y="11.1" width="0.8" height="0.8" fill="rgba(61, 95, 90, 0.55)" />
<rect x="0.1" y="12.1" width="0.8" height="0.8" fill="rgba(61, 95, 90, 0.55)" />
<rect x="0.1" y="13.1" width="0.8" height="0.8" fill="rgba(61, 95, 90, 0.55)" />
<rect x="0.1" y="14.1" width="0.8" height="0.8" fill="rgba(61, 95, 90, 0.55)" />
<rect x="0.1" y="15.1" width="0.8" height="0.8" fill="rgba(61, 95, 90, 0.55)" />
<rect x="1.1" y="0.1" width="0.8" height="0.8" fill="rgba(0, 255, 78, 0.4)" />
<rect x="1.1" y="1.1" width="0.8" height="0.8" fill="rgba(0, 255, 78, 0.4)" />
<rect x="1.1" y="2.1" width="0.8" height="0.8" fill="rgba(0, 137, 255, 0.4)" />
<rect x="1.1" y="3.1" width="0.8" height="0.8" fill="rgba(0, 137, 255, 0.4)" />
<rect x="1.1" y="4.1" width="0.8" height="0.8" fill="rgba(0, 137, 255, 0.4)" />
<rect x="1.1" y="5.1" width="0.8" height="0.8" fill="rgba(61, 95, 90, 0.55)" />
<rect x="1.1" y="6.1" width="0.8" height="0.8" fill="rgba(61, 95, 90, 0.55)" />
<rect x="1.1" y="7.1" width="0.8" height="0.8" fill="rgba(61, 95, 90, 0.55)" />
<rect x="1.1" y="8.1" width="0.8" height="0.8" fill="rgba(61, 95, 90, 0.55)" />
<rect x="1.1" y="9.1" width="0.8" height="0.8" fill="rgba(61, 95, 90, 0.55)" />
<rect x="1.1" y="10.1" width="0.8" height="0.8" fill="rgba(61, 95, 90, 0.55)" />
<rect x="1.1" y="11.1" width="0.8" height="0.8" fill="rgba(61, 95, 90, 0.55)" />
<rect x="1.1" y="12.1" width="0.8" height="0.8" fill="rgba(61, 95, 90, 0.55)" />
<rect x="1.1" y="13.1" width="0.8" height="0.8" fill="rgba(61, 95, 90, 0.55)" />
<rect x="1.1" y="14.1" width="0.8" height="0.8" fill="rgba(61, 95, 90, 0.55)" />
<rect x="1.1" y="15.1" width="0.8" height="0.8" fill="rgba(61, 95, 90, 0.55)" />
<rect x="2.1" y="0.1" width="0.8" height="0.8" fill="rgba(0, 255, 78, 0.4)" />
<rect x="2.1" y="1.1" width="0.8" height="0.8" fill="rgba(0, 255, 78, 0.4)" />
<rect x="2.1" y="2.1" width="0.8" height="0.8" fill="rgba(0, 137, 255, 0.4)" />
<rect x="2.1" y="3.1" width="0.8" height="0.8" fill="rgba(0, 137, 255, 0.4)" />
<rect x="2.1" y="4.1" width="0.8" height="0.8" fill="rgba(0, 137, 255, 0.4)" />
<rect x="2.1" y="5.1" width="0.8" height="0.8" fill="rgba(61, 95, 90, 0.55)" />
<rect x="2.1" y="6.1" width="0.8" height="0.8" fill="rgba(61, 95, 90, 0.55)" />
<rect x="2.1" y="7.1" width="0.8" height="0.8" fill="rgba(61, 95, 90, 0.55)" />
<rect x="2.1" y="8.1" width="0.8" height="0.8" fill="rgba(61, 95, 90, 0.55)" />
<rect x="2.1" y="9.1" width="0.8" height="0.8" fill="rgba(61, 95, 90, 0.55)" />
<rect x="2.1" y="10.1" width="0.8" height="0.8" fill="rgba(61, 95, 90, 0.55)" />
<rect x="2.1" y="11.1" width="0.8" height="0.8" fill="rgba(61, 95, 90, 0.55)" />
<rect x="2.1" y="12.1" width="0.8" height="0.8" fill="rgba(61, 95, 90, 0.55)" />
<rect x="2.1" y="13.1" width="0.8" height="0.8" fill="rgba(61, 95, 90, 0.55)" />
<rect x="2.1" y="14.1" width="0.8" height="0.8" fill="rgba(61, 95, 90, 0.55)" />
<rect x="2.1" y="15.1" width="0.8" height="0.8" fill="rgba(61, 95, 90, 0.55)" />
<rect x="3.1" y="0.1" width="0.8" height="0.8" fill="rgba(0, 255, 78, 0.4)" />
<rect x="3.1" y="1.1" width="0.8" height="0.8" fill="rgba(0, 255, 78, 0.4)" />
<rect x="3.1" y="2.1" width="0.8" height="0.8" fill="rgba(0, 137, 255, 0.4)" />
<rect x="3.1" y="3.1" width="0.8" height="0.8" fill="rgba(0, 137, 255, 0.4)" />
<rect x="3.1" y="4.1" width="0.8" height="0.8" fill="rgba(0, 137, 255, 0.4)" />
<rect x="3.1" y="5.1" width="0.8" height="0.8" fill="rgba(61, 95, 90, 0.55)" />
<rect x="3.1" y="6.1" width="0.8" height="0.8" fill="rgba(61, 95, 90, 0.55)" />
<rect x="3.1" y="7.1" width="0.8" height="0.8" fill="rgba(61, 95, 90, 0.55)" />
<rect x="3.1" y="8.1" width="0.8" height="0.8" fill="rgba(61, 95, 90, 0.55)" />
<rect x="3.1" y="9.1" width="0.8" height="0.8" fill="rgba(61, 95, 90, 0.55)" />
<rect x="3.1" y="10.1" width="0.8" height="0.8" fill="rgba(61, 95, 90, 0.55)" />
<rect x="3.1" y="11.1" width="0.8" height="0.8" fill="rgba(61, 95, 90, 0.55)" />
<rect x="3.1" y="12.1" width="0.8" height="0.8" fill="rgba(61, 95, 90, 0.55)" />
<rect x="3.1" y="13.1" width="0.8" height="0.8" fill="rgba(61, 95, 90, 0.55)" />
<rect x="3.1" y="14.1" width="0.8" height="0.8" fill="rgba(61, 95, 90, 0.55)" />
<rect x="3.1" y="15.1" width="0.8" height="0.8" fill="rgba(61, 95, 90, 0.55)" />
<rect x="4.1" y="0.1" width="0.8" height="0.8" fill="rgba(0, 255, 78, 0.4)" />
<rect x="4.1" y="1.1" width="0.8" height="0.8" fill="rgba(0, 255, 78, 0.4)" />
<rect x="4.1" y="2.1" width="0.8" height="0.8" fill="rgba(0, 137, 255, 0.4)" />
<rect x="4.1" y="3.1" width="0.8" height="0.8" fill="rgba(0, 137, 255, 0.4)" />
<rect x="4.1" y="4.1" width="0.8" height="0.8" fill="rgba(0, 137, 255, 0.4)" />
<rect x="4.1" y="5.1" width="0.8" height="0.8" fill="rgba(61, 95, 90, 0.55)" />
<rect x="4.1" y="6.1" width="0.8" height="0.8" fill="rgba(61, 95, 90, 0.55)" />
<rect x="4.1" y="7.1" width="0.8" height="0.8" fill="rgba(61, 95, 90, 0.55)" />
<rect x="4.1" y="8.1" width="0.8" height="0.8" fill="rgba(61, 95, 90, 0.55)" />
<rect x="4.1" y="9.1" width="0.8" height="0.8" fill="rgba(61, 95, 90, 0.55)" />
<rect x="4.1" y="10.1" width="0.8" height="0.8" fill="rgba(61, 95, 90, 0.55)" />
<rect x="4.1" y="11.1" width="0.8" height="0.8" fill="rgba(61, 95, 90, 0.55)" />
<rect x="4.1" y="12.1" width="0.8" height="0.8" fill="rgba(61, 95, 90, 0.55)" />
<rect x="4.1" y="13.1" width="0.8" height="0.8" fill="rgba(61, 95, 90, 0.55)" />
<rect x="4.1" y="14.1" width="0.8" height="0.8" fill="rgba(61, 95, 90, 0.55)" />
<rect x="4.1" y="15.1" width="0.8" height="0.8" fill="rgba(61, 95, 90, 0.55)" />
<rect x="5.1" y="0.1" width="0.8" height="0.8" fill="rgba(0, 255, 78, 0.4)" />
<rect x="5.1" y="1.1" width="0.8" height="0.8" fill="rgba(0, 255, 78, 0.4)" />
<rect x="5.1" y="2.1" width="0.8" height="0.8" fill="rgba(0, 137, 255, 0.4)" />
<rect x="5.1" y="3.1" width="0.8" height="0.8" fill="rgba(0, 137, 255, 0.4)" />
<rect x="5.1" y="4.1" width="0.8" height="0.8" fill="rgba(0, 137, 255, 0.4)" />
<rect x="5.1" y="5.1" width="0.8" height="0.8" fill="rgba(61, 95, 90, 0.55)" />
<rect x="5.1" y="6.1" width="0.8" height="0.8" fill="rgba(61, 95, 90, 0.55)" />
<rect x="5.1" y="7.1" width="0.8" height="0.8" fill="rgba(61, 95, 90, 0.55)" />
<rect x="5.1" y="8.1" width="0.8" height="0.8" fill="rgba(61, 95, 90, 0.55)" />
<rect x="5.1" y="9.1" width="0.8" height="0.8" fill="rgba(61, 95, 90, 0.55)" />
<rect x="5.1" y="10.1" width="0.8" height="0.8" fill="rgba(61, 95, 90, 0.55)" />
<rect x="5.1" y="11.1" width="0.8" height="0.8" fill="rgba(61, 95, 90, 0.55)" />
<rect x="5.1" y="12.1" width="0.8" height="0.8" fill="rgba(61, 95, 90, 0.55)" />
<rect x="5.1" y="13.1" width="0.8" height="0.8" fill="rgba(61, 95, 90, 0.55)" />
<rect x="5.1" y="14.1" width="0.8" height="0.8" fill="rgba(61, 95, 90, 0.55)" />
<rect x="5.1" y="15.1" width="0.8" height="0.8" fill="rgba(61, 95, 90, 0.55)" />
<rect x="6.1" y="0.1" width="0.8" height="0.8" fill="rgba(0, 255, 78, 0.4)" />
<rect x="6.1" y="1.1" width="0.8" height="0.8" fill="rgba(0, 255, 78, 0.4)" />
<rect x="6.1" y="2.1" width="0.8" height="0.8" fill="rgba(0, 137, 255, 0.4)" />
<rect x="6.1" y="3.1" width="0.8" height="0.8" fill="rgba(0, 137, 255, 0.4)" />
<rect x="6.1" y="4.1" width="0.8" height="0.8" fill="rgba(0, 137, 255, 0.4)" />
<rect x="6.1" y="5.1" width="0.8" height="0.8" fill="rgba(61, 95, 90, 0.55)" />
<rect x="6.1" y="6.1" width="0.8" height="0.8" fill="rgba(61, 95, 90, 0.55)" />
<rect x="6.1" y="7.1" width="0.8" height="0.8" fill="rgba(61, 95, 90, 0.55)" />
<rect x="6.1" y="8.1" width="0.8" height="0.8" fill="rgba(61, 95, 90, 0.55)" />
<rect x="6.1" y="9.1" width="0.8" height="0.8" fill="rgba(61, 95, 90, 0.55)" />
<rect x="6.1" y="10.1" width="0.8" height="0.8" fill="rgba(61, 95, 90, 0.55)" />
<rect x="6.1" y="11.1" width="0.8" height="0.8" fill="rgba(61, 95, 90, 0.55)" />
<rect x="6.1" y="12.1" width="0.8" height="0.8" fill="rgba(61, 95, 90, 0.55)" />
<rect x="6.1" y="13.1" width="0.8" height="0.8" fill="rgba(61, 95, 90, 0.55)" />
<rect x="6.1" y="14.1" width="0.8" height="0.8" fill="rgba(61, 95, 90, 0.55)" />
<rect x="6.1" y="15.1" width="0.8" height="0.8" fill="rgba(61, 95, 90, 0.55)" />
<rect x="7.1" y="0.1" width="0.8" height="0.8" fill="rgba(0, 255, 78, 0.4)" />
<rect x="7.1" y="1.1" width="0.8" height="0.8" fill="rgba(0, 255, 78, 0.4)" />
<rect x="7.1" y="2.1" width="0.8" height="0.8" fill="rgba(0, 137, 255, 0.4)" />
<rect x="7.1" y="3.1" width="0.8" height="0.8" fill="rgba(0, 137, 255, 0.4)" />
<rect x="7.1" y="4.1" width="0.8" height="0.8" fill="rgba(0, 137, 255, 0.4)" />
<rect x="7.1" y="5.1" width="0.8" height="0.8" fill="rgba(61, 95, 90, 0.55)" />
<rect x="7.1" y="6.1" width="0.8" height="0.8" fill="rgba(61, 95, 90, 0.55)" />
<rect x="7.1" y="7.1" width="0.8" height="0.8" fill="rgba(61, 95, 90, 0.55)" />
<rect x="7.1" y="8.1" width="0.8" height="0.8" fill="rgba(61, 95, 90, 0.55)" />
<rect x="7.1" y="9.1" width="0.8" height="0.8" fill="rgba(61, 95, 90, 0.55)" />
<rect x="7.1" y="10.1" width="0.8" height="0.8" fill="rgba(61, 95, 90, 0.55)" />
<rect x="7.1" y="11.1" width="0.8" height="0.8" fill="rgba(61, 95, 90, 0.55)" />
<rect x="7.1" y="12.1" width="0.8" height="0.8" fill="rgba(61, 95, 90, 0.55)" />
<rect x="7.1" y="13.1" width="0.8" height="0.8" fill="rgba(61, 95, 90, 0.55)" />
<rect x="7.1" y="14.1" width="0.8" height="0.8" fill="rgba(61, 95, 90, 0.55)" />
<rect x="7.1" y="15.1" width="0.8" height="0.8" fill="rgba(61, 95, 90, 0.55)" />
<rect x="8.1" y="0.1" width="0.8" height="0.8" fill="rgba(0, 255, 78, 0.4)" />
<rect x="8.1" y="1.1" width="0.8" height="0.8" fill="rgba(0, 255, 78, 0.4)" />
<rect x="8.1" y="2.1" width="0.8" height="0.8" fill="rgba(0, 137, 255, 0.4)" />
<rect x="8.1" y="3.1" width="0.8" height="0.8" fill="rgba(0, 137, 255, 0.4)" />
<rect x="8.1" y="4.1" width="0.8" height="0.8" fill="rgba(0, 137, 255, 0.4)" />
<rect x="8.1" y="5.1" width="0.8" height="0.8" fill="rgba(61, 95, 90, 0.55)" />
<rect x="8.1" y="6.1" width="0.8" height="0.8" fill="rgba(61, 95, 90, 0.55)" />
<rect x="8.1" y="7.1" width="0.8" height="0.8" fill="rgba(61, 95, 90, 0.55)" />
<rect x="8.1" y="8.1" width="0.8" height="0.8" fill="rgba(61, 95, 90, 0.55)" />
<rect x="8.1" y="9.1" width="0.8" height="0.8" fill="rgba(61, 95, 90, 0.55)" />
<rect x="8.1" y="10.1" width="0.8" height="0.8" fill="rgba(61, 95, 90, 0.55)" />
<rect x="8.1" y="11.1" width="0.8" height="0.8" fill="rgba(61, 95, 90, 0.55)" />
<rect x="8.1" y="12.1" width="0.8" height="0.8" fill="rgba(61, 95, 90, 0.55)" />
<rect x="8.1" y="13.1" width="0.8" height="0.8" fill="rgba(61, 95, 90, 0.55)" />
<rect x="8.1" y="14.1" width="0.8" height="0.8" fill="rgba(61, 95, 90, 0.55)" />
<rect x="8.1" y="15.1" width="0.8" height="0.8" fill="rgba(61, 95, 90, 0.55)" />
<rect x="9.1" y="0.1" width="0.8" height="0.8" fill="rgba(0, 255, 78, 0.4)" />
<rect x="9.1" y="1.1" width="0.8" height="0.8" fill="rgba(0, 255, 78, 0.4)" />
<rect x="9.1" y="2.1" width="0.8" height="0.8" fill="rgba(0, 137, 255, 0.4)" />
<rect x="9.1" y="3.1" width="0.8" height="0.8" fill="rgba(0, 137, 255, 0.4)" />
<rect x="9.1" y="4.1" width="0.8" height="0.8" fill="rgba(0, 137, 255, 0.4)" />
<rect x="9.1" y="5.1" width="0.8" height="0.8" fill="rgba(61, 95, 90, 0.55)" />
<rect x="9.1" y="6.1" width="0.8" height="0.8" fill="rgba(61, 95, 90, 0.55)" />
<rect x="9.1" y="7.1" width="0.8" height="0.8" fill="rgba(61, 95, 90, 0.55)" />
<rect x="9.1" y="8.1" width="0.8" height="0.8" fill="rgba(61, 95, 90, 0.55)" />
<rect x="9.1" y="9.1" width="0.8" height="0.8" fill="rgba(61, 95, 90, 0.55)" />
<rect x="9.1" y="10.1" width="0.8" height="0.8" fill="rgba(61, 95, 90, 0.55)" />
<rect x="9.1" y="11.1" width="0.8" height="0.8" fill="rgba(61, 95, 90, 0.55)" />
<rect x="9.1" y="12.1" width="0.8" height="0.8" fill="rgba(61, 95, 90, 0.55)" />
<rect x="9.1" y="13.1" width="0.8" height="0.8" fill="rgba(61, 95, 90, 0.55)" />
<rect x="9.1" y="14.1" width="0.8" height="0.8" fill="rgba(61, 95, 90, 0.55)" />
<rect x="9.1" y="15.1" width="0.8" height="0.8" fill="rgba(61, 95, 90, 0.55)" />
<rect x="10.1" y="0.1" width="0.8" height="0.8" fill="rgba(0, 255, 78, 0.4)" />
<rect x="10.1" y="1.1" width="0.8" height="0.8" fill="rgba(0, 255, 78, 0.4)" />
<rect x="10.1" y="2.1" width="0.8" height="0.8" fill="rgba(0, 137, 255, 0.4)" />
<rect x="10.1" y="3.1" width="0.8" height="0.8" fill="rgba(0, 137, 255, 0.4)" />
<rect x="10.1" y="4.1" width="0.8" height="0.8" fill="rgba(0, 137, 255, 0.4)" />
<rect x="10.1" y="5.1" width="0.8" height="0.8" fill="rgba(61, 95, 90, 0.55)" />
<rect x="10.1" y="6.1" width="0.8" height="0.8" fill="rgba(61, 95, 90, 0.55)" />
<rect x="10.1" y="7.1" width="0.8" height="0.8" fill="rgba(61, 95, 90, 0.55)" />
<rect x="10.1" y="8.1" width="0.8" height="0.8" fill="rgba(61, 95, 90, 0.55)" />
<rect x="10.1" y="9.1" width="0.8" height="0.8" fill="rgba(61, 95, 90, 0.55)" />
<rect x="10.1" y="10.1" width="0.8" height="0.8" fill="rgba(61, 95, 90, 0.55)" />
<rect x="10.1" y="11.1" width="0.8" height="0.8" fill="rgba(61, 95, 90, 0.55)" />
<rect x="10.1" y="12.1" width="0.8" height="0.8" fill="rgba(61, 95, 90, 0.55)" />
<rect x="10.1" y="13.1" width="0.8" height="0.8" fill="rgba(61, 95, 90, 0.55)" />
<rect x="10.1" y="14.1" width="0.8" height="0.8" fill="rgba(61, 95, 90, 0.55)" />
<rect x="10.1" y="15.1" width="0.8" height="0.8" fill="rgba(61, 95, 90, 0.55)" />
<rect x="11.1" y="0.1" width="0.8" height="0.8" fill="rgba(0, 255, 78, 0.4)" />
<rect x="11.1" y="1.1" width="0.8" height="0.8" fill="rgba(0, 255, 78, 0.4)" />
<rect x="11.1" y="2.1" width="0.8" height="0.8" fill="rgba(0, 137, 255, 0.4)" />
<rect x="11.1" y="3.1" width="0.8" height="0.8" fill="rgba(0, 137, 255, 0.4)" />
<rect x="11.1" y="4.1" width="0.8" height="0.8" fill="rgba(0, 137, 255, 0.4)" />
<rect x="11.1" y="5.1" width="0.8" height="0.8" fill="rgba(61, 95, 90, 0.55)" />
<rect x="11.1" y="6.1" width="0.8" height="0.8" fill="rgba(61, 95, 90, 0.55)" />
<rect x="11.1" y="7.1" width="0.8" height="0.8" fill="rgba(61, 95, 90, 0.55)" />
<rect x="11.1" y="8.1" width="0.8" height="0.8" fill="rgba(61, 95, 90, 0.55)" />
<rect x="11.1" y="9.1" width="0.8" height="0.8" fill="rgba(61, 95, 90, 0.55)" />
<rect x="11.1" y="10.1" width="0.8" height="0.8" fill="rgba(61, 95, 90, 0.55)" />
<rect x="11.1" y="11.1" width="0.8" height="0.8" fill="rgba(61, 95, 90, 0.55)" />
<rect x="11.1" y="12.1" width="0.8" height="0.8" fill="rgba(61, 95, 90, 0.55)" />
<rect x="11.1" y="13.1" width="0.8" height="0.8" fill="rgba(61, 95, 90, 0.55)" />
<rect x="11.1" y="14.1" width="0.8" height="0.8" fill="rgba(61, 95, 90, 0.55)" />
<rect x="11.1" y="15.1" width="0.8" height="0.8" fill="rgba(61, 95, 90, 0.55)" />
<rect x="12.1" y="0.1" width="0.8" height="0.8" fill="rgba(0, 255, 78, 0.4)" />
<rect x="12.1" y="1.1" width="0.8" height="0.8" fill="rgba(0, 255, 78, 0.4)" />
<rect x="12.1" y="2.1" width="0.8" height="0.8" fill="rgba(0, 137, 255, 0.4)" />
<rect x="12.1" y="3.1" width="0.8" height="0.8" fill="rgba(0, 137, 255, 0.4)" />
<rect x="12.1" y="4.1" width="0.8" height="0.8" fill="rgba(61, 95, 90, 0.55)" />
<rect x="12.1" y="5.1" width="0.8" height="0.8" fill="rgba(61, 95, 90, 0.55)" />
<rect x="12.1" y="6.1" width="0.8" height="0.8" fill="rgba(61, 95, 90, 0.55)" />
<rect x="12.1" y="7.1" width="0.8" height="0.8" fill="rgba(61, 95, 90, 0.55)" />
<rect x="12.1" y="8.1" width="0.8" height="0.8" fill="rgba(61, 95, 90, 0.55)" />
<rect x="12.1" y="9.1" width="0.8" height="0.8" fill="rgba(61, 95, 90, 0.55)" />
<rect x="12.1" y="10.1" width="0.8" height="0.8" fill="rgba(61, 95, 90, 0.55)" />
<rect x="12.1" y="11.1" width="0.8" height="0.8" fill="rgba(61, 95, 90, 0.55)" />
<rect x="12.1" y="12.1" width="0.8" height="0.8" fill="rgba(61, 95, 90, 0.55)" />
<rect x="12.1" y="13.1" width="0.8" height="0.8" fill="rgba(61, 95, 90, 0.55)" />
<rect x="12.1" y="14.1" width="0.8" height="0.8" fill="rgba(61, 95, 90, 0.55)" />
<rect x="12.1" y="15.1" width="0.8" height="0.8" fill="rgba(61, 95, 90, 0.55)" />
<rect x="13.1" y="0.1" width="0.8" height="0.8" fill="rgba(0, 255, 78, 0.4)" />
<rect x="13.1" y="1.1" width="0.8" height="0.8" fill="rgba(0, 255, 78, 0.4)" />
<rect x="13.1" y="2.1" width="0.8" height="0.8" fill="rgba(0, 137, 255, 0.4)" />
<rect x="13.1" y="3.1" width="0.8" height="0.8" fill="rgba(0, 137, 255, 0.4)" />
<rect x="13.1" y="4.1" width="0.8" height="0.8" fill="rgba(61, 95, 90, 0.55)" />
<rect x="13.1" y="5.1" width="0.8" height="0.8" fill="rgba(61, 95, 90, 0.55)" />
<rect x="13.1" y="6.1" width="0.8" height="0.8" fill="rgba(61, 95, 90, 0.55)" />
<rect x="13.1" y="7.1" width="0.8" height="0.8" fill="rgba(61, 95, 90, 0.55)" />
<rect x="13.1" y="8.1" width="0.8" height="0.8" fill="rgba(61, 95, 90, 0.55)" />
<rect x="13.1" y="9.1" width="0.8" height="0.8" fill="rgba(61, 95, 90, 0.55)" />
<rect x="13.1" y="10.1" width="0.8" height="0.8" fill="rgba(61, 95, 90, 0.55)" />
<rect x="13.1" y="11.1" width="0.8" height="0.8" fill="rgba(61, 95, 90, 0.55)" />
<rect x="13.1" y="12.1" width="0.8" height="0.8" fill="rgba(61, 95, 90, 0.55)" />
<rect x="13.1" y="13.1" width="0.8" height="0.8" fill="rgba(61, 95, 90, 0.55)" />
<rect x="13.1" y="14.1" width="0.8" height="0.8" fill="rgba(61, 95, 90, 0.55)" />
<rect x="13.1" y="15.1" width="0.8" height="0.8" fill="rgba(61, 95, 90, 0.55)" />
<rect x="14.1" y="0.1" width="0.8" height="0.8" fill="rgba(0, 255, 78, 0.4)" />
<rect x="14.1" y="1.1" width="0.8" height="0.8" fill="rgba(0, 137, 255, 0.4)" />
<rect x="14.1" y="2.1" width="0.8" height="0.8" fill="rgba(0, 137, 255, 0.4)" />
<rect x="14.1" y="3.1" width="0.8" height="0.8" fill="rgba(0, 137, 255, 0.4)" />
<rect x="14.1" y="4.1" width="0.8" height="0.8" fill="rgba(61, 95, 90, 0.55)" />
<rect x="14.1" y="5.1" width="0.8" height="0.8" fill="rgba(61, 95, 90, 0.55)" />
<rect x="14.1" y="6.1" width="0.8" height="0.8" fill="rgba(61, 95, 90, 0.55)" />
<rect x="14.1" y="7.1" width="0.8" height="0.8" fill="rgba(61, 95, 90, 0.55)" />
<rect x="14.1" y="8.1" width="0.8" height="0.8" fill="rgba(61, 95, 90, 0.55)" />
<rect x="14.1" y="9.1" width="0.8" height="0.8" fill="rgba(61, 95, 90, 0.55)" />
<rect x="14.1" y="10.1" width="0.8" height="0.8" fill="rgba(61, 95, 90, 0.55)" />
<rect x="14.1" y="11.1" width="0.8" height="0.8" fill="rgba(61, 95, 90, 0.55)" />
<rect x="14.1" y="12.1" width="0.8" height="0.8" fill="rgba(61, 95, 90, 0.55)" />
<rect x="14.1" y="13.1" width="0.8" height="0.8" fill="rgba(61, 95, 90, 0.55)" />
<rect x="14.1" y="14.1" width="0.8" height="0.8" fill="rgba(61, 95, 90, 0.55)" />
<rect x="14.1" y="15.1" width="0.8" height="0.8" fill="rgba(61, 95, 90, 0.55)" />
<rect x="15.1" y="0.1" width="0.8" height="0.8" fill="rgba(0, 255, 78, 0.4)" />
<rect x="15.1" y="1.1" width="0.8" height="0.8" fill="rgba(0, 137, 255, 0.4)" />
<rect x="15.1" y="2.1" width="0.8" height="0.8" fill="rgba(0, 137, 255, 0.4)" />
<rect x="15.1" y="3.1" width="0.8" height="0.8" fill="rgba(0, 137, 255, 0.4)" />
<rect x="15.1" y="4.1" width="0.8" height="0.8" fill="rgba(61, 95, 90, 0.55)" />
<rect x="15.1" y="5.1" width="0.8" height="0.8" fill="rgba(61, 95, 90, 0.55)" />
<rect x="15.1" y="6.1" width="0.8" height="0.8" fill="rgba(61, 95, 90, 0.55)" />
<rect x="15.1" y="7.1" width="0.8" height="0.8" fill="rgba(61, 95, 90, 0.55)" />
<rect x="15.1" y="8.1" width="0.8" height="0.8" fill="rgba(61, 95, 90, 0.55)" />
<rect x="15.1" y="9.1" width="0.8" height="0.8" fill="rgba(61, 95, 90, 0.55)" />
<rect x="15.1" y="10.1" width="0.8" height="0.8" fill="rgba(61, 95, 90, 0.55)" />
<rect x="15.1" y="11.1" width="0.8" height="0.8" fill="rgba(61, 95, 90, 0.55)" />
<rect x="15.1" y="12.1" width="0.8" height="0.8" fill="rgba(61, 95, 90, 0.55)" />
<rect x="15.1" y="13.1" width="0.8" height="0.8" fill="rgba(61, 95, 90, 0.55)" />
<rect x="15.1" y="14.1" width="0.8" height="0.8" fill="rgba(61, 95, 90, 0.55)" />
<rect x="15.1" y="15.1" width="0.8" height="0.8" fill="rgba(61, 95, 90, 0.55)" />
<rect x="16.1" y="0.1" width="0.8" height="0.8" fill="rgba(0, 255, 78, 0.4)" />
<rect x="16.1" y="1.1" width="0.8" height="0.8" fill="rgba(0, 137, 255, 0.4)" />
<rect x="16.1" y="2.1" width="0.8" height="0.8" fill="rgba(0, 137, 255, 0.4)" />
<rect x="16.1" y="3.1" width="0.8" height="0.8" fill="rgba(0, 137, 255, 0.4)" />
<rect x="16.1" y="4.1" width="0.8" height="0.8" fill="rgba(61, 95, 90, 0.55)" />
<rect x="16.1" y="5.1" width="0.8" height="0.8" fill="rgba(61, 95, 90, 0.55)" />
<rect x="16.1" y="6.1" width="0.8" height="0.8" fill="rgba(61, 95, 90, 0.55)" />
<rect x="16.1" y="7.1" width="0.8" height="0.8" fill="rgba(61, 95, 90, 0.55)" />
<rect x="16.1" y="8.1" width="0.8" height="0.8" fill="rgba(61, 95, 90, 0.55)" />
<rect x="16.1" y="9.1" width="0.8" height="0.8" fill="rgba(61, 95, 90, 0.55)" />
<rect x="16.1" y="10.1" width="0.8" height="0.8" fill="rgba(61, 95, 90, 0.55)" />
<rect x="16.1" y="11.1" width="0.8" height="0.8" fill="rgba(61, 95, 90, 0.55)" />
<rect x="16.1" y="12.1" width="0.8" height="0.8" fill="rgba(61, 95, 90, 0.55)" />
<rect x="16.1" y="13.1" width="0.8" height="0.8" fill="rgba(61, 95, 90, 0.55)" />
<rect x="16.1" y="14.1" width="0.8" height="0.8" fill="rgba(61, 95, 90, 0.55)" />
<rect x="16.1" y="15.1" width="0.8" height="0.8" fill="rgba(61, 95, 90, 0.55)" />
<rect x="17.1" y="0.1" width="0.8" height="0.8" fill="rgba(0, 255, 78, 0.4)" />
<rect x="17.1" y="1.1" width="0.8" height="0.8" fill="rgba(0, 137, 255, 0.4)" />
<rect x="17.1" y="2.1" width="0.8" height="0.8" fill="rgba(0, 137, 255, 0.4)" />
<rect x="17.1" y="3.1" width="0.8" height="0.8" fill="rgba(0, 137, 255, 0.4)" />
<rect x="17.1" y="4.1" width="0.8" height="0.8" fill="rgba(61, 95, 90, 0.55)" />
<rect x="17.1" y="5.1" width="0.8" height="0.8" fill="rgba(61, 95, 90, 0.55)" />
<rect x="17.1" y="6.1" width="0.8" height="0.8" fill="rgba(61, 95, 90, 0.55)" />
<rect x="17.1" y="7.1" width="0.8" height="0.8" fill="rgba(61, 95, 90, 0.55)" />
<rect x="17.1" y="8.1" width="0.8" height="0.8" fill="rgba(61, 95, 90, 0.55)" />
<rect x="17.1" y="9.1" width="0.8" height="0.8" fill="rgba(61, 95, 90, 0.55)" />
<rect x="17.1" y="10.1" width="0.8" height="0.8" fill="rgba(61, 95, 90, 0.55)" />
<rect x="17.1" y="11.1" width="0.8" height="0.8" fill="rgba(61, 95, 90, 0.55)" />
<rect x="17.1" y="12.1" width="0.8" height="0.8" fill="rgba(61, 95, 90, 0.55)" />
<rect x="17.1" y="13.1" width="0.8" height="0.8" fill="rgba(61, 95, 90, 0.55)" />
<rect x="17.1" y="14.1" width="0.8" height="0.8" fill="rgba(61, 95, 90, 0.55)" />
<rect x="17.1" y="15.1" width="0.8" height="0.8" fill="rgba(61, 95, 90, 0.55)" />
<rect x="18.1" y="0.1" width="0.8" height="0.8" fill="rgba(0, 255, 78, 0.4)" />
<rect x="18.1" y="1.1" width="0.8" height="0.8" fill="rgba(0, 137, 255, 0.4)" />
<rect x="18.1" y="2.1" width="0.8" height="0.8" fill="rgba(0, 137, 255, 0.4)" />
<rect x="18.1" y="3.1" width="0.8" height="0.8" fill="rgba(0, 137, 255, 0.4)" />
<rect x="18.1" y="4.1" width="0.8" height="0.8" fill="rgba(61, 95, 90, 0.55)" />
<rect x="18.1" y="5.1" width="0.8" height="0.8" fill="rgba(61, 95, 90, 0.55)" />
<rect x="18.1" y="6.1" width="0.8" height="0.8" fill="rgba(61, 95, 90, 0.55)" />
<rect x="18.1" y="7.1" width="0.8" height="0.8" fill="rgba(61, 95, 90, 0.55)" />
<rect x="18.1" y="8.1" width="0.8" height="0.8" fill="rgba(61, 95, 90, 0.55)" />
<rect x="18.1" y="9.1" width="0.8" height="0.8" fill="rgba(61, 95, 90, 0.55)" />
<rect x="18.1" y="10.1" width="0.8" height="0.8" fill="rgba(61, 95, 90, 0.55)" />
<rect x="18.1" y="11.1" width="0.8" height="0.8" fill="rgba(61, 95, 90, 0.55)" />
<rect x="18.1" y="12.1" width="0.8" height="0.8" fill="rgba(61, 95, 90, 0.55)" />
<rect x="18.1" y="13.1" width="0.8" height="0.8" fill="rgba(61, 95, 90, 0.55)" />
<rect x="18.1" y="14.1" width="0.8" height="0.8" fill="rgba(61, 95, 90, 0.55)" />
<rect x="18.1" y="15.1" width="0.8" height="0.8" fill="rgba(61, 95, 90, 0.55)" />
<rect x="19.1" y="0.1" width="0.8" height="0.8" fill="rgba(0, 255, 78, 0.4)" />
<rect x="19.1" y="1.1" width="0.8" height="0.8" fill="rgba(0, 137, 255, 0.4)" />
<rect x="19.1" y="2.1" width="0.8" height="0.8" fill="rgba(0, 137, 255, 0.4)" />
<rect x="19.1" y="3.1" width="0.8" height="0.8" fill="rgba(0, 137, 255, 0.4)" />
<rect x="19.1" y="4.1" width="0.8" height="0.8" fill="rgba(61, 95, 90, 0.55)" />
<rect x="19.1" y="5.1" width="0.8" height="0.8" fill="rgba(61, 95, 90, 0.55)" />
<rect x="19.1" y="6.1" width="0.8" height="0.8" fill="rgba(61, 95, 90, 0.55)" />
<rect x="19.1" y="7.1" width="0.8" height="0.8" fill="rgba(61, 95, 90, 0.55)" />
<rect x="19.1" y="8.1" width="0.8" height="0.8" fill="rgba(61, 95, 90, 0.55)" />
<rect x="19.1" y="9.1" width="0.8" height="0.8" fill="rgba(61, 95, 90, 0.55)" />
<rect x="19.1" y="10.1" width="0.8" height="0.8" fill="rgba(61, 95, 90, 0.55)" />
<rect x="19.1" y="11.1" width="0.8" height="0.8" fill="rgba(61, 95, 90, 0.55)" />
<rect x="19.1" y="12.1" width="0.8" height="0.8" fill="rgba(61, 95, 90, 0.55)" />
<rect x="19.1" y="13.1" width="0.8" height="0.8" fill="rgba(61, 95, 90, 0.55)" />
<rect x="19.1" y="14.1" width="0.8" height="0.8" fill="rgba(61, 95, 90, 0.55)" />
<rect x="19.1" y="15.1" width="0.8" height="0.8" fill="rgba(61, 95, 90, 0.55)" />
<rect x="20.1" y="0.1" width="0.8" height="0.8" fill="rgba(0, 255, 78, 0.4)" />
<rect x="20.1" y="1.1" width="0.8" height="0.8" fill="rgba(0, 137, 255, 0.4)" />
<rect x="20.1" y="2.1" width="0.8" height="0.8" fill="rgba(0, 137, 255, 0.4)" />
<rect x="20.1" y="3.1" width="0.8" height="0.8" fill="rgba(0, 137, 255, 0.4)" />
<rect x="20.1" y="4.1" width="0.8" height="0.8" fill="rgba(61, 95, 90, 0.55)" />
<rect x="20.1" y="5.1" width="0.8" height="0.8" fill="rgba(61, 95, 90, 0.55)" />
<rect x="20.1" y="6.1" width="0.8" height="0.8" fill="rgba(61, 95, 90, 0.55)" />
<rect x="20.1" y="7.1" width="0.8" height="0.8" fill="rgba(61, 95, 90, 0.55)" />
<rect x="20.1" y="8.1" width="0.8" height="0.8" fill="rgba(61, 95, 90, 0.55)" />
<rect x="20.1" y="9.1" width="0.8" height="0.8" fill="rgba(61, 95, 90, 0.55)" />
<rect x="20.1" y="10.1" width="0.8" height="0.8" fill="rgba(61, 95, 90, 0.55)" />
<rect x="20.1" y="11.1" width="0.8" height="0.8" fill="rgba(61, 95, 90, 0.55)" />
<rect x="20.1" y="12.1" width="0.8" height="0.8" fill="rgba(61, 95, 90, 0.55)" />
<rect x="20.1" y="13.1" width="0.8" height="0.8" fill="rgba(61, 95, 90, 0.55)" />
<rect x="20.1" y="14.1" width="0.8" height="0.8" fill="rgba(61, 95, 90, 0.55)" />
<rect x="20.1" y="15.1" width="0.8" height="0.8" fill="rgba(61, 95, 90, 0.55)" />
<rect x="21.1" y="0.1" width="0.8" height="0.8" fill="rgba(0, 255, 78, 0.4)" />
<rect x="21.1" y="1.1" width="0.8" height="0.8" fill="rgba(0, 137, 255, 0.4)" />
<rect x="21.1" y="2.1" width="0.8" height="0.8" fill="rgba(0, 137, 255, 0.4)" />
<rect x="21.1" y="3.1" width="0.8" height="0.8" fill="rgba(0, 137, 255, 0.4)" />
<rect x="21.1" y="4.1" width="0.8" height="0.8" fill="rgba(61, 95, 90, 0.55)" />
<rect x="21.1" y="5.1" width="0.8" height="0.8" fill="rgba(61, 95, 90, 0.55)" />
<rect x="21.1" y="6.1" width="0.8" height="0.8" fill="rgba(61, 95, 90, 0.55)" />
<rect x="21.1" y="7.1" width="0.8" height="0.8" fill="rgba(61, 95, 90, 0.55)" />
<rect x="21.1" y="8.1" width="0.8" height="0.8" fill="rgba(61, 95, 90, 0.55)" />
<rect x="21.1" y="9.1" width="0.8" height="0.8" fill="rgba(61, 95, 90, 0.55)" />
<rect x="21.1" y="10.1" width="0.8" height="0.8" fill="rgba(61, 95, 90, 0.55)" />
<rect x="21.1" y="11.1" width="0.8" height="0.8" fill="rgba(61, 95, 90, 0.55)" />
<rect x="21.1" y="12.1" width="0.8" height="0.8" fill="rgba(61, 95, 90, 0.55)" />
<rect x="21.1" y="13.1" width="0.8" height="0.8" fill="rgba(61, 95, 90, 0.55)" />
<rect x="21.1" y="14.1" width="0.8" height="0.8" fill="rgba(61, 95, 90, 0.55)" />
<rect x="21.1" y="15.1" width="0.8" height="0.8" fill="rgba(61, 95, 90, 0.55)" />
<rect x="22.1" y="0.1" width="0.8" height="0.8" fill="rgba(0, 255, 78, 0.4)" />
<rect x="22.1" y="1.1" width="0.8" height="0.8" fill="rgba(0, 137, 255, 0.4)" />
<rect x="22.1" y="2.1" width="0.8" height="0.8" fill="rgba(0, 137, 255, 0.4)" />
<rect x="22.1" y="3.1" width="0.8" height="0.8" fill="rgba(0, 137, 255, 0.4)" />
<rect x="22.1" y="4.1" width="0.8" height="0.8" fill="rgba(61, 95, 90, 0.55)" />
<rect x="22.1" y="5.1" width="0.8" height="0.8" fill="rgba(61, 95, 90, 0.55)" />
<rect x="22.1" y="6.1" width="0.8" height="0.8" fill="rgba(61, 95, 90, 0.55)" />
<rect x="22.1" y="7.1" width="0.8" height="0.8" fill="rgba(61, 95, 90, 0.55)" />
<rect x="22.1" y="8.1" width="0.8" height="0.8" fill="rgba(61, 95, 90, 0.55)" />
<rect x="22.1" y="9.1" width="0.8" height="0.8" fill="rgba(61, 95, 90, 0.55)" />
<rect x="22.1" y="10.1" width="0.8" height="0.8" fill="rgba(61, 95, 90, 0.55)" />
<rect x="22.1" y="11.1" width="0.8" height="0.8" fill="rgba(61, 95, 90, 0.55)" />
<rect x="22.1" y="12.1" width="0.8" height="0.8" fill="rgba(61, 95, 90, 0.55)" />
<rect x="22.1" y="13.1" width="0.8" height="0.8" fill="rgba(61, 95, 90, 0.55)" />
<rect x="22.1" y="14.1" width="0.8" height="0.8" fill="rgba(61, 95, 90, 0.55)" />
<rect x="22.1" y="15.1" width="0.8" height="0.8" fill="rgba(61, 95, 90, 0.55)" />
<rect x="23.1" y="0.1" width="0.8" height="0.8" fill="rgba(0, 255, 78, 0.4)" />
<rect x="23.1" y="1.1" width="0.8" height="0.8" fill="rgba(0, 137, 255, 0.4)" />
<rect x="23.1" y="2.1" width="0.8" height="0.8" fill="rgba(0, 137, 255, 0.4)" />
<rect x="23.1" y="3.1" width="0.8" height="0.8" fill="rgba(0, 137, 255, 0.4)" />
<rect x="23.1" y="4.1" width="0.8" height="0.8" fill="rgba(61, 95, 90, 0.55)" />
<rect x="23.1" y="5.1" width="0.8" height="0.8" fill="rgba(61, 95, 90, 0.55)" />
<rect x="23.1" y="6.1" width="0.8" height="0.8" fill="rgba(61, 95, 90, 0.55)" />
<rect x="23.1" y="7.1" width="0.8" height="0.8" fill="rgba(61, 95, 90, 0.55)" />
<rect x="23.1" y="8.1" width="0.8" height="0.8" fill="rgba(61, 95, 90, 0.55)" />
<rect x="23.1" y="9.1" width="0.8" height="0.8" fill="rgba(61, 95, 90, 0.55)" />
<rect x="23.1" y="10.1" width="0.8" height="0.8" fill="rgba(61, 95, 90, 0.55)" />
<rect x="23.1" y="11.1" width="0.8" height="0.8" fill="rgba(61, 95, 90, 0.55)" />
<rect x="23.1" y="12.1" width="0.8" height="0.8" fill="rgba(61, 95, 90, 0.55)" />
<rect x="23.1" y="13.1" width="0.8" height="0.8" fill="rgba(61, 95, 90, 0.55)" />
<rect x="23.1" y="14.1" width="0.8" height="0.8" fill="rgba(61, 95, 90, 0.55)" />
<rect x="23.1" y="15.1" width="0.8" height="0.8" fill="rgba(61, 95, 90, 0.55)" />
<rect x="24.1" y="0.1" width="0.8" height="0.8" fill="rgba(0, 255, 78, 0.4)" />
<rect x="24.1" y="1.1" width="0.8" height="0.8" fill="rgba(0, 137, 255, 0.4)" />
<rect x="24.1" y="2.1" width="0.8" height="0.8" fill="rgba(0, 137, 255, 0.4)" />
<rect x="24.1" y="3.1" width="0.8" height="0.8" fill="rgba(0, 137, 255, 0.4)" />
<rect x="24.1" y="4.1" width="0.8" height="0.8" fill="rgba(61, 95, 90, 0.55)" />
<rect x="24.1" y="5.1" width="0.8" height="0.8" fill="rgba(61, 95, 90, 0.55)" />
<rect x="24.1" y="6.1" width="0.8" height="0.8" fill="rgba(61, 95, 90, 0.55)" />
<rect x="24.1" y="7.1" width="0.8" height="0.8" fill="rgba(61, 95, 90, 0.55)" />
<rect x="24.1" y="8.1" width="0.8" height="0.8" fill="rgba(61, 95, 90, 0.55)" />
<rect x="24.1" y="9.1" width="0.8" height="0.8" fill="rgba(61, 95, 90, 0.55)" />
<rect x="24.1" y="10.1" width="0.8" height="0.8" fill="rgba(61, 95, 90, 0.55)" />
<rect x="24.1" y="11.1" width="0.8" height="0.8" fill="rgba(61, 95, 90, 0.55)" />
<rect x="24.1" y="12.1" width="0.8" height="0.8" fill="rgba(61, 95, 90, 0.55)" />
<rect x="24.1" y="13.1" width="0.8" height="0.8" fill="rgba(61, 95, 90, 0.55)" />
<rect x="24.1" y="14.1" width="0.8" height="0.8" fill="rgba(61, 95, 90, 0.55)" />
<rect x="24.1" y="15.1" width="0.8" height="0.8" fill="rgba(61, 95, 90, 0.55)" />
<rect x="25.1" y="0.1" width="0.8" height="0.8" fill="rgba(0, 255, 78, 0.4)" />
<rect x="25.1" y="1.1" width="0.8" height="0.8" fill="rgba(0, 137, 255, 0.4)" />
<rect x="25.1" y="2.1" width="0.8" height="0.8" fill="rgba(0, 137, 255, 0.4)" />
<rect x="25.1" y="3.1" width="0.8" height="0.8" fill="rgba(0, 137, 255, 0.4)" />
<rect x="25.1" y="4.1" width="0.8" height="0.8" fill="rgba(61, 95, 90, 0.55)" />
<rect x="25.1" y="5.1" width="0.8" height="0.8" fill="rgba(61, 95, 90, 0.55)" />
<rect x="25.1" y="6.1" width="0.8" height="0.8" fill="rgba(61, 95, 90, 0.55)" />
<rect x="25.1" y="7.1" width="0.8" height="0.8" fill="rgba(61, 95, 90, 0.55)" />
<rect x="25.1" y="8.1" width="0.8" height="0.8" fill="rgba(61, 95, 90, 0.55)" />
<rect x="25.1" y="9.1" width="0.8" height="0.8" fill="rgba(61, 95, 90, 0.55)" />
<rect x="25.1" y="10.1" width="0.8" height="0.8" fill="rgba(61, 95, 90, 0.55)" />
<rect x="25.1" y="11.1" width="0.8" height="0.8" fill="rgba(61, 95, 90, 0.55)" />
<rect x="25.1" y="12.1" width="0.8" height="0.8" fill="rgba(61, 95, 90, 0.55)" />
<rect x="25.1" y="13.1" width="0.8" height="0.8" fill="rgba(61, 95, 90, 0.55)" />
<rect x="25.1" y="14.1" width="0.8" height="0.8" fill="rgba(61, 95, 90, 0.55)" />
<rect x="25.1" y="15.1" width="0.8" height="0.8" fill="rgba(61, 95, 90, 0.55)" />
<rect x="26.1" y="0.1" width="0.8" height="0.8" fill="rgba(0, 255, 78, 0.4)" />
<rect x="26.1" y="1.1" width="0.8" height="0.8" fill="rgba(0, 137, 255, 0.4)" />
<rect x="26.1" y="2.1" width="0.8" height="0.8" fill="rgba(0, 137, 255, 0.4)" />
<rect x="26.1" y="3.1" width="0.8" height="0.8" fill="rgba(0, 137, 255, 0.4)" />
<rect x="26.1" y="4.1" width="0.8" height="0.8" fill="rgba(61, 95, 90, 0.55)" />
<rect x="26.1" y="5.1" width="0.8" height="0.8" fill="rgba(61, 95, 90, 0.55)" />
<rect x="26.1" y="6.1" width="0.8" height="0.8" fill="rgba(61, 95, 90, 0.55)" />
<rect x="26.1" y="7.1" width="0.8" height="0.8" fill="rgba(61, 95, 90, 0.55)" />
<rect x="26.1" y="8.1" width="0.8" height="0.8" fill="rgba(61, 95, 90, 0.55)" />
<rect x="26.1" y="9.1" width="0.8" height="0.8" fill="rgba(61, 95, 90, 0.55)" />
<rect x="26.1" y="10.1" width="0.8" height="0.8" fill="rgba(61, 95, 90, 0.55)" />
<rect x="26.1" y="11.1" width="0.8" height="0.8" fill="rgba(61, 95, 90, 0.55)" />
<rect x="26.1" y="12.1" width="0.8" height="0.8" fill="rgba(61, 95, 90, 0.55)" />
<rect x="26.1" y="13.1" width="0.8" height="0.8" fill="rgba(61, 95, 90, 0.55)" />
<rect x="26.1" y="14.1" width="0.8" height="0.8" fill="rgba(61, 95, 90, 0.55)" />
<rect x="26.1" y="15.1" width="0.8" height="0.8" fill="rgba(61, 95, 90, 0.55)" />
<rect x="27.1" y="0.1" width="0.8" height="0.8" fill="rgba(0, 255, 78, 0.4)" />
<rect x="27.1" y="1.1" width="0.8" height="0.8" fill="rgba(0, 137, 255, 0.4)" />
<rect x="27.1" y="2.1" width="0.8" height="0.8" fill="rgba(0, 137, 255, 0.4)" />
<rect x="27.1" y="3.1" width="0.8" height="0.8" fill="rgba(0, 137, 255, 0.4)" />
<rect x="27.1" y="4.1" width="0.8" height="0.8" fill="rgba(61, 95, 90, 0.55)" />
<rect x="27.1" y="5.1" width="0.8" height="0.8" fill="rgba(61, 95, 90, 0.55)" />
<rect x="27.1" y="6.1" width="0.8" height="0.8" fill="rgba(61, 95, 90, 0.55)" />
<rect x="27.1" y="7.1" width="0.8" height="0.8" fill="rgba(61, 95, 90, 0.55)" />
<rect x="27.1" y="8.1" width="0.8" height="0.8" fill="rgba(61, 95, 90, 0.55)" />
<rect x="27.1" y="9.1" width="0.8" height="0.8" fill="rgba(61, 95, 90, 0.55)" />
<rect x="27.1" y="10.1" width="0.8" height="0.8" fill="rgba(61, 95, 90, 0.55)" />
<rect x="27.1" y="11.1" width="0.8" height="0.8" fill="rgba(61, 95, 90, 0.55)" />
<rect x="27.1" y="12.1" width="0.8" height="0.8" fill="rgba(61, 95, 90, 0.55)" />
<rect x="27.1" y="13.1" width="0.8" height="0.8" fill="rgba(61, 95, 90, 0.55)" />
<rect x="27.1" y="14.1" width="0.8" height="0.8" fill="rgba(61, 95, 90, 0.55)" />
<rect x="27.1" y="15.1" width="0.8" height="0.8" fill="rgba(61, 95, 90, 0.55)" />
<rect x="28.1" y="0.1" width="0.8" height="0.8" fill="rgba(0, 255, 78, 0.4)" />
<rect x="28.1" y="1.1" width="0.8" height="0.8" fill="rgba(0, 137, 255, 0.4)" />
<rect x="28.1" y="2.1" width="0.8" height="0.8" fill="rgba(0, 137, 255, 0.4)" />
<rect x="28.1" y="3.1" width="0.8" height="0.8" fill="rgba(0, 137, 255, 0.4)" />
<rect x="28.1" y="4.1" width="0.8" height="0.8" fill="rgba(61, 95, 90, 0.55)" />
<rect x="28.1" y="5.1" width="0.8" height="0.8" fill="rgba(61, 95, 90, 0.55)" />
<rect x="28.1" y="6.1" width="0.8" height="0.8" fill="rgba(61, 95, 90, 0.55)" />
<rect x="28.1" y="7.1" width="0.8" height="0.8" fill="rgba(61, 95, 90, 0.55)" />
<rect x="28.1" y="8.1" width="0.8" height="0.8" fill="rgba(61, 95, 90, 0.55)" />
<rect x="28.1" y="9.1" width="0.8" height="0.8" fill="rgba(61, 95, 90, 0.55)" />
<rect x="28.1" y="10.1" width="0.8" height="0.8" fill="rgba(61, 95, 90, 0.55)" />
<rect x="28.1" y="11.1" width="0.8" height="0.8" fill="rgba(61, 95, 90, 0.55)" />
<rect x="28.1" y="12.1" width="0.8" height="0.8" fill="rgba(61, 95, 90, 0.55)" />
<rect x="28.1" y="13.1" width="0.8" height="0.8" fill="rgba(61, 95, 90, 0.55)" />
<rect x="28.1" y="14.1" width="0.8" height="0.8" fill="rgba(61, 95, 90, 0.55)" />
<rect x="28.1" y="15.1" width="0.8" height="0.8" fill="rgba(61, 95, 90, 0.55)" />
<rect x="29.1" y="0.1" width="0.8" height="0.8" fill="rgba(0, 255, 78, 0.4)" />
<rect x="29.1" y="1.1" width="0.8" height="0.8" fill="rgba(0, 137, 255, 0.4)" />
<rect x="29.1" y="2.1" width="0.8" height="0.8" fill="rgba(0, 137, 255, 0.4)" />
<rect x="29.1" y="3.1" width="0.8" height="0.8" fill="rgba(0, 137, 255, 0.4)" />
<rect x="29.1" y="4.1" width="0.8" height="0.8" fill="rgba(61, 95, 90, 0.55)" />
<rect x="29.1" y="5.1" width="0.8" height="0.8" fill="rgba(61, 95, 90, 0.55)" />
<rect x="29.1" y="6.1" width="0.8" height="0.8" fill="rgba(61, 95, 90, 0.55)" />
<rect x="29.1" y="7.1" width="0.8" height="0.8" fill="rgba(61, 95, 90, 0.55)" />
<rect x="29.1" y="8.1" width="0.8" height="0.8" fill="rgba(61, 95, 90, 0.55)" />
<rect x="29.1" y="9.1" width="0.8" height="0.8" fill="rgba(61, 95, 90, 0.55)" />
<rect x="29.1" y="10.1" width="0.8" height="0.8" fill="rgba(61, 95, 90, 0.55)" />
<rect x="29.1" y="11.1" width="0.8" height="0.8" fill="rgba(61, 95, 90, 0.55)" />
<rect x="29.1" y="12.1" width="0.8" height="0.8" fill="rgba(61, 95, 90, 0.55)" />
<rect x="29.1" y="13.1" width="0.8" height="0.8" fill="rgba(61, 95, 90, 0.55)" />
<rect x="29.1" y="14.1" width="0.8" height="0.8" fill="rgba(61, 95, 90, 0.55)" />
<rect x="29.1" y="15.1" width="0.8" height="0.8" fill="rgba(61, 95, 90, 0.55)" />
<rect x="30.1" y="0.1" width="0.8" height="0.8" fill="rgba(0, 255, 78, 0.4)" />
<rect x="30.1" y="1.1" width="0.8" height="0.8" fill="rgba(0, 137, 255, 0.4)" />
<rect x="30.1" y="2.1" width="0.8" height="0.8" fill="rgba(0, 137, 255, 0.4)" />
<rect x="30.1" y="3.1" width="0.8" height="0.8" fill="rgba(0, 137, 255, 0.4)" />
<rect x="30.1" y="4.1" width="0.8" height="0.8" fill="rgba(61, 95, 90, 0.55)" />
<rect x="30.1" y="5.1" width="0.8" height="0.8" fill="rgba(61, 95, 90, 0.55)" />
<rect x="30.1" y="6.1" width="0.8" height="0.8" fill="rgba(61, 95, 90, 0.55)" />
<rect x="30.1" y="7.1" width="0.8" height="0.8" fill="rgba(61, 95, 90, 0.55)" />
<rect x="30.1" y="8.1" width="0.8" height="0.8" fill="rgba(61, 95, 90, 0.55)" />
<rect x="30.1" y="9.1" width="0.8" height="0.8" fill="rgba(61, 95, 90, 0.55)" />
<rect x="30.1" y="10.1" width="0.8" height="0.8" fill="rgba(61, 95, 90, 0.55)" />
<rect x="30.1" y="11.1" width="0.8" height="0.8" fill="rgba(61, 95, 90, 0.55)" />
<rect x="30.1" y="12.1" width="0.8" height="0.8" fill="rgba(61, 95, 90, 0.55)" />
<rect x="30.1" y="13.1" width="0.8" height="0.8" fill="rgba(61, 95, 90, 0.55)" />
<rect x="30.1" y="14.1" width="0.8" height="0.8" fill="rgba(61, 95, 90, 0.55)" />
<rect x="30.1" y="15.1" width="0.8" height="0.8" fill="rgba(61, 95, 90, 0.55)" />
<rect x="31.1" y="0.1" width="0.8" height="0.8" fill="rgba(0, 255, 78, 0.4)" />
<rect x="31.1" y="1.1" width="0.8" height="0.8" fill="rgba(0, 137, 255, 0.4)" />
<rect x="31.1" y="2.1" width="0.8" height="0.8" fill="rgba(0, 137, 255, 0.4)" />
<rect x="31.1" y="3.1" width="0.8" height="0.8" fill="rgba(0, 137, 255, 0.4)" />
<rect x="31.1" y="4.1" width="0.8" height="0.8" fill="rgba(61, 95, 90, 0.55)" />
<rect x="31.1" y="5.1" width="0.8" height="0.8" fill="rgba(61, 95, 90, 0.55)" />
<rect x="31.1" y="6.1" width="0.8" height="0.8" fill="rgba(61, 95, 90, 0.55)" />
<rect x="31.1" y="7.1" width="0.8" height="0.8" fill="rgba(61, 95, 90, 0.55)" />
<rect x="31.1" y="8.1" width="0.8" height="0.8" fill="rgba(61, 95, 90, 0.55)" />
<rect x="31.1" y="9.1" width="0.8" height="0.8" fill="rgba(61, 95, 90, 0.55)" />
<rect x="31.1" y="10.1" width="0.8" height="0.8" fill="rgba(61, 95, 90, 0.55)" />
<rect x="31.1" y="11.1" width="0.8" height="0.8" fill="rgba(61, 95, 90, 0.55)" />
<rect x="31.1" y="12.1" width="0.8" height="0.8" fill="rgba(61, 95, 90, 0.55)" />
<rect x="31.1" y="13.1" width="0.8" height="0.8" fill="rgba(61, 95, 90, 0.55)" />
<rect x="31.1" y="14.1" width="0.8" height="0.8" fill="rgba(61, 95, 90, 0.55)" />
<rect x="31.1" y="15.1" width="0.8" height="0.8" fill="rgba(61, 95, 90, 0.55)" /></svg>
