<?xml version="1.0" encoding="UTF-8" standalone="no"?>
<svg
   xmlns:dc="http://purl.org/dc/elements/1.1/"
   xmlns:cc="http://creativecommons.org/ns#"
   xmlns:rdf="http://www.w3.org/1999/02/22-rdf-syntax-ns#"
   xmlns:svg="http://www.w3.org/2000/svg"
   xmlns="http://www.w3.org/2000/svg"
   xmlns:sodipodi="http://sodipodi.sourceforge.net/DTD/sodipodi-0.dtd"
   xmlns:inkscape="http://www.inkscape.org/namespaces/inkscape"
   version="1.1"
   width="8.0467472cm"
   height="4.4604478cm"
   viewBox="0 0 31680.129 17560.835"
   id="svg2"
   inkscape:version="0.91 r13725"
   sodipodi:docname="denmarkbasesch.svg">
  <metadata
     id="metadata3814">
    <rdf:RDF>
      <cc:Work
         rdf:about="">
        <dc:format>image/svg+xml</dc:format>
        <dc:type
           rdf:resource="http://purl.org/dc/dcmitype/StillImage" />
        <dc:title>SVG Picture created as denmarkbase.sch.svg date 2016/06/30 14:53:40 </dc:title>
      </cc:Work>
    </rdf:RDF>
  </metadata>
  <defs
     id="defs3812" />
  <sodipodi:namedview
     pagecolor="#ffffff"
     bordercolor="#666666"
     borderopacity="1"
     objecttolerance="10"
     gridtolerance="10"
     guidetolerance="10"
     inkscape:pageopacity="0"
     inkscape:pageshadow="2"
     inkscape:window-width="1676"
     inkscape:window-height="1010"
     id="namedview3810"
     showgrid="false"
     fit-margin-top="0"
     fit-margin-left="0"
     fit-margin-right="0"
     fit-margin-bottom="0"
     inkscape:zoom="1.2686138"
     inkscape:cx="257.76423"
     inkscape:cy="90.038897"
     inkscape:window-x="1280"
     inkscape:window-y="18"
     inkscape:window-maximized="0"
     inkscape:current-layer="svg2" />
  <title
     id="title4">SVG Picture created as denmarkbase.sch.svg date 2016/06/30 14:53:40 </title>
  <desc
     id="desc6">Picture generated by Eeschema-SVG </desc>
  <g
     style="fill:#840000;fill-opacity:0;stroke:#840000;stroke-width:100;stroke-linecap:round;stroke-linejoin:round;stroke-opacity:1"
     id="g2472"
     transform="translate(-75660.017,-31169.593)">
    <circle
       cx="87500"
       cy="37000"
       r="1110"
       id="circle2474" />
  </g>
  <g
     style="fill:#840000;fill-opacity:0;stroke:#840000;stroke-width:60;stroke-linecap:round;stroke-linejoin:round;stroke-opacity:1"
     id="g2476"
     transform="translate(-75660.017,-31169.593)">
    <polyline
       fill="none;"
       points="87250,36750 88000,36000 "
       id="polyline2478" />
    <polyline
       fill="none;"
       points="87250,37250 88000,38000 88000,38000 "
       id="polyline2480" />
  </g>
  <g
     style="fill:#840000;fill-opacity:0;stroke:#840000;stroke-width:200;stroke-linecap:round;stroke-linejoin:round;stroke-opacity:1"
     id="g2482"
     transform="translate(-75660.017,-31169.593)">
    <polyline
       fill="none;"
       points="87250,36250 87250,37750 87250,37750 "
       id="polyline2484" />
  </g>
  <g
     style="fill:#840000;fill-opacity:1;stroke:#840000;stroke-width:60;stroke-linecap:round;stroke-linejoin:round;stroke-opacity:1"
     id="g2486"
     transform="translate(-75660.017,-31169.593)">
    <polyline
       style="fill-rule:evenodd"
       points="87500,37700 87700,37500 87900,37900 87500,37700 87500,37700 "
       id="polyline2488" />
  </g>
  <g
     style="fill:#840000;fill-opacity:0;stroke:#840000;stroke-width:60;stroke-linecap:round;stroke-linejoin:round;stroke-opacity:1"
     id="g2490"
     transform="translate(-75660.017,-31169.593)">
    <path
       d="m 88000,38000 0,1000"
       id="path2492"
       inkscape:connector-curvature="0" />
    <path
       d="m 88580,38360 0,280"
       id="path2494"
       inkscape:connector-curvature="0" />
    <path
       d="m 88580,38500 -500,0 70,50 50,50 20,40"
       id="path2496"
       inkscape:connector-curvature="0" />
    <path
       d="m 87250,37000 -2250,0"
       id="path2498"
       inkscape:connector-curvature="0" />
    <path
       d="m 85980,37120 20,-20 50,-20 120,0 40,20 30,20 20,50 0,50 -20,70 -290,290 310,0"
       id="path2500"
       inkscape:connector-curvature="0" />
    <path
       d="m 88000,36000 0,-1000"
       id="path2502"
       inkscape:connector-curvature="0" />
    <path
       d="m 88080,35670 0,-310 190,170 0,-80 20,-40 20,-30 50,-20 120,0 50,20 20,30 30,40 0,150 -30,40 -20,30"
       id="path2504"
       inkscape:connector-curvature="0" />
  </g>
  <g
     style="fill:#008484;fill-opacity:0;stroke:#008484;stroke-width:60;stroke-linecap:round;stroke-linejoin:round;stroke-opacity:1"
     id="g2506"
     transform="translate(-75660.017,-31169.593)">
    <path
       d="m 86450,35740 -50,-20 -40,-50 -70,-70 -50,-20 -50,0"
       id="path2508"
       inkscape:connector-curvature="0" />
    <path
       d="m 86210,35700 -40,-30 -50,-50 -20,-90 0,-170 20,-90 50,-50 40,-20 100,0 50,20 40,50 30,90 0,170 -30,90 -40,50 -50,30 -100,0"
       id="path2510"
       inkscape:connector-curvature="0" />
    <path
       d="m 86590,35200 310,0 -170,190 80,0 40,20 30,20 20,50 0,120 -20,50 -30,20 -40,30 -150,0 -40,-30 -30,-20"
       id="path2512"
       inkscape:connector-curvature="0" />
    <path
       d="m 84680,38740 20,-20 50,-20 120,0 40,20 30,20 20,50 0,50 -20,70 -290,290 310,0"
       id="path2514"
       inkscape:connector-curvature="0" />
    <path
       d="m 85180,39200 0,-500 280,500 0,-500"
       id="path2516"
       inkscape:connector-curvature="0" />
    <path
       d="m 85650,38700 310,0 -170,190 80,0 40,20 30,20 20,50 0,120 -20,50 -30,20 -40,30 -150,0 -40,-30 -30,-20"
       id="path2518"
       inkscape:connector-curvature="0" />
    <path
       d="m 86200,39200 100,0 50,-30 20,-20 50,-70 20,-100 0,-190 -20,-50 -30,-20 -40,-20 -100,0 -50,20 -20,20 -20,50 0,120 20,50 20,20 50,30 100,0 40,-30 30,-20 20,-50"
       id="path2520"
       inkscape:connector-curvature="0" />
    <path
       d="m 86750,38700 50,0 50,20 20,20 30,50 20,100 0,120 -20,90 -30,50 -20,20 -50,30 -50,0 -40,-30 -30,-20 -20,-50 -20,-90 0,-120 20,-100 20,-50 30,-20 40,-20"
       id="path2522"
       inkscape:connector-curvature="0" />
    <path
       d="m 87350,38860 0,340"
       id="path2524"
       inkscape:connector-curvature="0" />
    <path
       d="m 87230,38670 -110,360 300,0"
       id="path2526"
       inkscape:connector-curvature="0" />
  </g>
  <g
     style="fill:#840000;fill-opacity:0;stroke:#840000;stroke-width:100;stroke-linecap:round;stroke-linejoin:round;stroke-opacity:1"
     id="g2532"
     transform="translate(-75660.017,-31169.593)">
    <circle
       cx="87500"
       cy="43000"
       r="1110"
       id="circle2534" />
  </g>
  <g
     style="fill:#840000;fill-opacity:0;stroke:#840000;stroke-width:60;stroke-linecap:round;stroke-linejoin:round;stroke-opacity:1"
     id="g2536"
     transform="translate(-75660.017,-31169.593)">
    <polyline
       fill="none;"
       points="87250,43250 88000,44000 "
       id="polyline2538" />
    <polyline
       fill="none;"
       points="87250,42750 88000,42000 88000,42000 "
       id="polyline2540" />
  </g>
  <g
     style="fill:#840000;fill-opacity:0;stroke:#840000;stroke-width:200;stroke-linecap:round;stroke-linejoin:round;stroke-opacity:1"
     id="g2542"
     transform="translate(-75660.017,-31169.593)">
    <polyline
       fill="none;"
       points="87250,43750 87250,42250 87250,42250 "
       id="polyline2544" />
  </g>
  <g
     style="fill:#840000;fill-opacity:1;stroke:#840000;stroke-width:60;stroke-linecap:round;stroke-linejoin:round;stroke-opacity:1"
     id="g2546"
     transform="translate(-75660.017,-31169.593)">
    <polyline
       style="fill-rule:evenodd"
       points="87900,42300 87700,42100 87500,42500 87900,42300 87900,42300 "
       id="polyline2548" />
  </g>
  <g
     style="fill:#840000;fill-opacity:0;stroke:#840000;stroke-width:60;stroke-linecap:round;stroke-linejoin:round;stroke-opacity:1"
     id="g2550"
     transform="translate(-75660.017,-31169.593)">
    <path
       d="m 88000,42000 0,-1000"
       id="path2552"
       inkscape:connector-curvature="0" />
    <path
       d="m 88580,41360 0,280"
       id="path2554"
       inkscape:connector-curvature="0" />
    <path
       d="m 88580,41500 -500,0 70,50 50,50 20,40"
       id="path2556"
       inkscape:connector-curvature="0" />
    <path
       d="m 87250,43000 -2250,0"
       id="path2558"
       inkscape:connector-curvature="0" />
    <path
       d="m 85980,43120 20,-20 50,-20 120,0 40,20 30,20 20,50 0,50 -20,70 -290,290 310,0"
       id="path2560"
       inkscape:connector-curvature="0" />
    <path
       d="m 88000,44000 0,1000"
       id="path2562"
       inkscape:connector-curvature="0" />
    <path
       d="m 88080,44670 0,-310 190,170 0,-80 20,-40 20,-30 50,-20 120,0 50,20 20,30 30,40 0,150 -30,40 -20,30"
       id="path2564"
       inkscape:connector-curvature="0" />
  </g>
  <g
     style="fill:#008484;fill-opacity:0;stroke:#008484;stroke-width:60;stroke-linecap:round;stroke-linejoin:round;stroke-opacity:1"
     id="g2566"
     transform="translate(-75660.017,-31169.593)">
    <path
       d="m 85950,44800 -50,-20 -40,-50 -70,-70 -50,-20 -50,0"
       id="path2568"
       inkscape:connector-curvature="0" />
    <path
       d="m 85710,44760 -40,-30 -50,-50 -20,-90 0,-170 20,-90 50,-50 40,-20 100,0 50,20 40,50 30,90 0,170 -30,90 -40,50 -50,30 -100,0"
       id="path2570"
       inkscape:connector-curvature="0" />
    <path
       d="m 86350,44420 0,340"
       id="path2572"
       inkscape:connector-curvature="0" />
    <path
       d="m 86230,44230 -110,360 300,0"
       id="path2574"
       inkscape:connector-curvature="0" />
    <path
       d="m 84680,40800 20,-20 50,-20 120,0 40,20 30,20 20,50 0,50 -20,70 -290,290 310,0"
       id="path2576"
       inkscape:connector-curvature="0" />
    <path
       d="m 85180,41260 0,-500 280,500 0,-500"
       id="path2578"
       inkscape:connector-curvature="0" />
    <path
       d="m 85650,40760 310,0 -170,190 80,0 40,20 30,20 20,50 0,120 -20,50 -30,20 -40,30 -150,0 -40,-30 -30,-20"
       id="path2580"
       inkscape:connector-curvature="0" />
    <path
       d="m 86200,41260 100,0 50,-30 20,-20 50,-70 20,-100 0,-190 -20,-50 -30,-20 -40,-20 -100,0 -50,20 -20,20 -20,50 0,120 20,50 20,20 50,30 100,0 40,-30 30,-20 20,-50"
       id="path2582"
       inkscape:connector-curvature="0" />
    <path
       d="m 86750,40760 50,0 50,20 20,20 30,50 20,100 0,120 -20,90 -30,50 -20,20 -50,30 -50,0 -40,-30 -30,-20 -20,-50 -20,-90 0,-120 20,-100 20,-50 30,-20 40,-20"
       id="path2584"
       inkscape:connector-curvature="0" />
    <path
       d="m 87350,40760 -90,0 -50,20 -20,20 -50,80 -20,90 0,190 20,50 20,20 50,30 100,0 40,-30 30,-20 20,-50 0,-120 -20,-50 -30,-20 -40,-20 -100,0 -50,20 -20,20 -20,50"
       id="path2586"
       inkscape:connector-curvature="0" />
  </g>
  <g
     style="fill:#008400;fill-opacity:0;stroke:#008400;stroke-width:60;stroke-linecap:round;stroke-linejoin:round;stroke-opacity:1"
     id="g2588"
     transform="translate(-75660.017,-31169.593)">
    <path
       d="m 88000,46000 0,-1000"
       id="path2590"
       inkscape:connector-curvature="0" />
    <path
       d="m 88000,39000 0,2000"
       id="path2592"
       inkscape:connector-curvature="0" />
    <path
       d="m 88000,35000 0,-1000"
       id="path2594"
       inkscape:connector-curvature="0" />
    <path
       d="m 83500,43000 1500,0"
       id="path2596"
       inkscape:connector-curvature="0" />
    <path
       d="m 83500,37000 0,6000"
       id="path2598"
       inkscape:connector-curvature="0" />
    <path
       d="m 83500,37000 1500,0"
       id="path2600"
       inkscape:connector-curvature="0" />
  </g>
  <g
     style="fill:#840000;fill-opacity:0;stroke:#840000;stroke-width:100;stroke-linecap:round;stroke-linejoin:round;stroke-opacity:1"
     id="g2606"
     transform="translate(-75660.017,-31169.593)">
    <rect
       x="101000"
       y="39600"
       width="2000"
       height="800"
       rx="0"
       id="rect2608" />
  </g>
  <g
     style="fill:#840000;fill-opacity:0;stroke:#840000;stroke-width:60;stroke-linecap:round;stroke-linejoin:round;stroke-opacity:1"
     id="g2610"
     transform="translate(-75660.017,-31169.593)">
    <path
       d="m 103000,40000 500,0"
       id="path2612"
       inkscape:connector-curvature="0" />
    <path
       d="m 101000,40000 -500,0"
       id="path2614"
       inkscape:connector-curvature="0" />
  </g>
  <g
     style="fill:#008484;fill-opacity:0;stroke:#008484;stroke-width:60;stroke-linecap:round;stroke-linejoin:round;stroke-opacity:1"
     id="g2616"
     transform="translate(-75660.017,-31169.593)">
    <path
       d="m 101910,39460 -160,-240"
       id="path2618"
       inkscape:connector-curvature="0" />
    <path
       d="m 101630,39460 0,-500 190,0 50,20 20,20 20,50 0,70 -20,50 -20,20 -50,30 -190,0"
       id="path2620"
       inkscape:connector-curvature="0" />
    <path
       d="m 102340,39120 0,340"
       id="path2622"
       inkscape:connector-curvature="0" />
    <path
       d="m 102220,38930 -110,360 300,0"
       id="path2624"
       inkscape:connector-curvature="0" />
    <path
       d="m 101410,40260 -280,0"
       id="path2626"
       inkscape:connector-curvature="0" />
    <path
       d="m 101270,40260 0,-500 -50,70 -50,50 -40,20"
       id="path2628"
       inkscape:connector-curvature="0" />
    <path
       d="m 101720,39760 50,0 50,20 20,20 30,50 20,100 0,120 -20,90 -30,50 -20,20 -50,30 -50,0 -40,-30 -30,-20 -20,-50 -20,-90 0,-120 20,-100 20,-50 30,-20 40,-20"
       id="path2630"
       inkscape:connector-curvature="0" />
    <path
       d="m 102200,39760 50,0 50,20 20,20 30,50 20,100 0,120 -20,90 -30,50 -20,20 -50,30 -50,0 -40,-30 -30,-20 -20,-50 -20,-90 0,-120 20,-100 20,-50 30,-20 40,-20"
       id="path2632"
       inkscape:connector-curvature="0" />
    <path
       d="m 102870,40260 -160,-240"
       id="path2634"
       inkscape:connector-curvature="0" />
    <path
       d="m 102590,40260 0,-500 190,0 50,20 20,20 20,50 0,70 -20,50 -20,20 -50,30 -190,0"
       id="path2636"
       inkscape:connector-curvature="0" />
  </g>
  <g
     style="fill:#008400;fill-opacity:0;stroke:#008400;stroke-width:60;stroke-linecap:round;stroke-linejoin:round;stroke-opacity:1"
     id="g2638"
     transform="translate(-75660.017,-31169.593)">
    <path
       d="m 82500,40000 1000,0"
       id="path2640"
       inkscape:connector-curvature="0" />
  </g>
  <g
     style="fill:#008400;fill-opacity:1;stroke:#008400;stroke-width:100;stroke-linecap:round;stroke-linejoin:round;stroke-opacity:1"
     id="g2644"
     transform="translate(-75660.017,-31169.593)">
    <circle
       cx="83500"
       cy="40000"
       r="200"
       id="circle2646" />
  </g>
  <g
     style="fill:#840000;fill-opacity:0;stroke:#840000;stroke-width:60;stroke-linecap:round;stroke-linejoin:round;stroke-opacity:1"
     id="g2652"
     transform="translate(-75660.017,-31169.593)">
    <rect
       x="90950"
       y="42500"
       width="100"
       height="600"
       rx="0"
       id="rect2654" />
    <rect
       x="91950"
       y="42500"
       width="100"
       height="600"
       rx="0"
       id="rect2656" />
    <rect
       x="90500"
       y="42500"
       width="2000"
       height="1000"
       rx="0"
       id="rect2658" />
    <path
       d="m 92000,42500 0,-1500"
       id="path2660"
       inkscape:connector-curvature="0" />
    <path
       d="m 91880,41610 0,280"
       id="path2662"
       inkscape:connector-curvature="0" />
    <path
       d="m 91880,41750 -500,0 70,50 50,50 20,40"
       id="path2664"
       inkscape:connector-curvature="0" />
    <path
       d="m 91000,42500 0,-1500"
       id="path2666"
       inkscape:connector-curvature="0" />
    <path
       d="m 90420,41890 -20,-20 -20,-50 0,-120 20,-40 20,-30 50,-20 50,0 70,20 290,290 0,-310"
       id="path2668"
       inkscape:connector-curvature="0" />
  </g>
  <g
     style="fill:#008484;fill-opacity:0;stroke:#008484;stroke-width:60;stroke-linecap:round;stroke-linejoin:round;stroke-opacity:1"
     id="g2670"
     transform="translate(-75660.017,-31169.593)">
    <path
       d="m 93260,43370 -500,0 0,-190 20,-50 20,-20 50,-20 70,0 50,20 20,20 30,50 0,190"
       id="path2672"
       inkscape:connector-curvature="0" />
    <path
       d="m 92760,42660 0,90 20,50 20,20 80,50 90,20 190,0 50,-20 20,-20 30,-50 0,-100 -30,-40 -20,-30 -50,-20 -120,0 -50,20 -20,30 -20,40 0,100 20,50 20,20 50,20"
       id="path2674"
       inkscape:connector-curvature="0" />
    <path
       d="m 90650,44200 0,-500 170,350 160,-350 0,500"
       id="path2676"
       inkscape:connector-curvature="0" />
    <path
       d="m 91310,43700 100,0 50,20 40,50 30,90 0,170 -30,90 -40,50 -50,30 -100,0 -40,-30 -50,-50 -20,-90 0,-170 20,-90 50,-50 40,-20"
       id="path2678"
       inkscape:connector-curvature="0" />
    <path
       d="m 91670,43700 280,0"
       id="path2680"
       inkscape:connector-curvature="0" />
    <path
       d="m 91810,44200 0,-500"
       id="path2682"
       inkscape:connector-curvature="0" />
    <path
       d="m 92100,43740 20,-20 50,-20 120,0 40,20 30,20 20,50 0,50 -20,70 -290,290 310,0"
       id="path2684"
       inkscape:connector-curvature="0" />
  </g>
  <g
     style="fill:#008400;fill-opacity:0;stroke:#008400;stroke-width:60;stroke-linecap:round;stroke-linejoin:round;stroke-opacity:1"
     id="g2686"
     transform="translate(-75660.017,-31169.593)">
    <path
       d="m 91000,41000 0,-1000"
       id="path2688"
       inkscape:connector-curvature="0" />
    <path
       d="m 91000,40000 -3000,0"
       id="path2690"
       inkscape:connector-curvature="0" />
  </g>
  <g
     style="fill:#008400;fill-opacity:1;stroke:#008400;stroke-width:100;stroke-linecap:round;stroke-linejoin:round;stroke-opacity:1"
     id="g2694"
     transform="translate(-75660.017,-31169.593)">
    <circle
       cx="88000"
       cy="40000"
       r="200"
       id="circle2696" />
  </g>
  <g
     style="fill:#840000;fill-opacity:0;stroke:#840000;stroke-width:100;stroke-linecap:round;stroke-linejoin:round;stroke-opacity:1"
     id="g2702"
     transform="translate(-75660.017,-31169.593)">
    <circle
       cx="95500"
       cy="37000"
       r="1110"
       id="circle2704" />
  </g>
  <g
     style="fill:#840000;fill-opacity:0;stroke:#840000;stroke-width:60;stroke-linecap:round;stroke-linejoin:round;stroke-opacity:1"
     id="g2706"
     transform="translate(-75660.017,-31169.593)">
    <polyline
       fill="none;"
       points="95750,36750 95000,36000 "
       id="polyline2708" />
    <polyline
       fill="none;"
       points="95750,37250 95000,38000 95000,38000 "
       id="polyline2710" />
  </g>
  <g
     style="fill:#840000;fill-opacity:0;stroke:#840000;stroke-width:200;stroke-linecap:round;stroke-linejoin:round;stroke-opacity:1"
     id="g2712"
     transform="translate(-75660.017,-31169.593)">
    <polyline
       fill="none;"
       points="95750,36250 95750,37750 95750,37750 "
       id="polyline2714" />
  </g>
  <g
     style="fill:#840000;fill-opacity:1;stroke:#840000;stroke-width:60;stroke-linecap:round;stroke-linejoin:round;stroke-opacity:1"
     id="g2716"
     transform="translate(-75660.017,-31169.593)">
    <polyline
       style="fill-rule:evenodd"
       points="95500,37700 95300,37500 95100,37900 95500,37700 95500,37700 "
       id="polyline2718" />
  </g>
  <g
     style="fill:#840000;fill-opacity:0;stroke:#840000;stroke-width:60;stroke-linecap:round;stroke-linejoin:round;stroke-opacity:1"
     id="g2720"
     transform="translate(-75660.017,-31169.593)">
    <path
       d="m 95000,38000 0,1000"
       id="path2722"
       inkscape:connector-curvature="0" />
    <path
       d="m 95580,38360 0,280"
       id="path2724"
       inkscape:connector-curvature="0" />
    <path
       d="m 95580,38500 -500,0 70,50 50,50 20,40"
       id="path2726"
       inkscape:connector-curvature="0" />
    <path
       d="m 95750,37000 2250,0"
       id="path2728"
       inkscape:connector-curvature="0" />
    <path
       d="m 96730,37120 20,-20 50,-20 120,0 40,20 30,20 20,50 0,50 -20,70 -290,290 310,0"
       id="path2730"
       inkscape:connector-curvature="0" />
    <path
       d="m 95000,36000 0,-1000"
       id="path2732"
       inkscape:connector-curvature="0" />
    <path
       d="m 95080,35670 0,-310 190,170 0,-80 20,-40 20,-30 50,-20 120,0 50,20 20,30 30,40 0,150 -30,40 -20,30"
       id="path2734"
       inkscape:connector-curvature="0" />
  </g>
  <g
     style="fill:#008484;fill-opacity:0;stroke:#008484;stroke-width:60;stroke-linecap:round;stroke-linejoin:round;stroke-opacity:1"
     id="g2736"
     transform="translate(-75660.017,-31169.593)">
    <path
       d="m 96450,35740 -50,-20 -40,-50 -70,-70 -50,-20 -50,0"
       id="path2738"
       inkscape:connector-curvature="0" />
    <path
       d="m 96210,35700 -40,-30 -50,-50 -20,-90 0,-170 20,-90 50,-50 40,-20 100,0 50,20 40,50 30,90 0,170 -30,90 -40,50 -50,30 -100,0"
       id="path2740"
       inkscape:connector-curvature="0" />
    <path
       d="m 96590,35200 330,0 -210,500"
       id="path2742"
       inkscape:connector-curvature="0" />
    <path
       d="m 95600,38740 20,-20 50,-20 120,0 40,20 30,20 20,50 0,50 -20,70 -290,290 310,0"
       id="path2744"
       inkscape:connector-curvature="0" />
    <path
       d="m 96100,39200 0,-500 280,500 0,-500"
       id="path2746"
       inkscape:connector-curvature="0" />
    <path
       d="m 96570,38700 310,0 -170,190 80,0 40,20 30,20 20,50 0,120 -20,50 -30,20 -40,30 -150,0 -40,-30 -30,-20"
       id="path2748"
       inkscape:connector-curvature="0" />
    <path
       d="m 97120,39200 100,0 50,-30 20,-20 50,-70 20,-100 0,-190 -20,-50 -30,-20 -40,-20 -100,0 -50,20 -20,20 -20,50 0,120 20,50 20,20 50,30 100,0 40,-30 30,-20 20,-50"
       id="path2750"
       inkscape:connector-curvature="0" />
    <path
       d="m 97670,38700 50,0 50,20 20,20 30,50 20,100 0,120 -20,90 -30,50 -20,20 -50,30 -50,0 -40,-30 -30,-20 -20,-50 -20,-90 0,-120 20,-100 20,-50 30,-20 40,-20"
       id="path2752"
       inkscape:connector-curvature="0" />
    <path
       d="m 98270,38860 0,340"
       id="path2754"
       inkscape:connector-curvature="0" />
    <path
       d="m 98150,38670 -110,360 300,0"
       id="path2756"
       inkscape:connector-curvature="0" />
  </g>
  <g
     style="fill:#840000;fill-opacity:0;stroke:#840000;stroke-width:100;stroke-linecap:round;stroke-linejoin:round;stroke-opacity:1"
     id="g2762"
     transform="translate(-75660.017,-31169.593)">
    <circle
       cx="95500"
       cy="43000"
       r="1110"
       id="circle2764" />
  </g>
  <g
     style="fill:#840000;fill-opacity:0;stroke:#840000;stroke-width:60;stroke-linecap:round;stroke-linejoin:round;stroke-opacity:1"
     id="g2766"
     transform="translate(-75660.017,-31169.593)">
    <polyline
       fill="none;"
       points="95750,43250 95000,44000 "
       id="polyline2768" />
    <polyline
       fill="none;"
       points="95750,42750 95000,42000 95000,42000 "
       id="polyline2770" />
  </g>
  <g
     style="fill:#840000;fill-opacity:0;stroke:#840000;stroke-width:200;stroke-linecap:round;stroke-linejoin:round;stroke-opacity:1"
     id="g2772"
     transform="translate(-75660.017,-31169.593)">
    <polyline
       fill="none;"
       points="95750,43750 95750,42250 95750,42250 "
       id="polyline2774" />
  </g>
  <g
     style="fill:#840000;fill-opacity:1;stroke:#840000;stroke-width:60;stroke-linecap:round;stroke-linejoin:round;stroke-opacity:1"
     id="g2776"
     transform="translate(-75660.017,-31169.593)">
    <polyline
       style="fill-rule:evenodd"
       points="95100,42300 95300,42100 95500,42500 95100,42300 95100,42300 "
       id="polyline2778" />
  </g>
  <g
     style="fill:#840000;fill-opacity:0;stroke:#840000;stroke-width:60;stroke-linecap:round;stroke-linejoin:round;stroke-opacity:1"
     id="g2780"
     transform="translate(-75660.017,-31169.593)">
    <path
       d="m 95000,42000 0,-1000"
       id="path2782"
       inkscape:connector-curvature="0" />
    <path
       d="m 95580,41360 0,280"
       id="path2784"
       inkscape:connector-curvature="0" />
    <path
       d="m 95580,41500 -500,0 70,50 50,50 20,40"
       id="path2786"
       inkscape:connector-curvature="0" />
    <path
       d="m 95750,43000 2250,0"
       id="path2788"
       inkscape:connector-curvature="0" />
    <path
       d="m 96730,43120 20,-20 50,-20 120,0 40,20 30,20 20,50 0,50 -20,70 -290,290 310,0"
       id="path2790"
       inkscape:connector-curvature="0" />
    <path
       d="m 95000,44000 0,1000"
       id="path2792"
       inkscape:connector-curvature="0" />
    <path
       d="m 95080,44670 0,-310 190,170 0,-80 20,-40 20,-30 50,-20 120,0 50,20 20,30 30,40 0,150 -30,40 -20,30"
       id="path2794"
       inkscape:connector-curvature="0" />
  </g>
  <g
     style="fill:#008484;fill-opacity:0;stroke:#008484;stroke-width:60;stroke-linecap:round;stroke-linejoin:round;stroke-opacity:1"
     id="g2796"
     transform="translate(-75660.017,-31169.593)">
    <path
       d="m 96950,44800 -50,-20 -40,-50 -70,-70 -50,-20 -50,0"
       id="path2798"
       inkscape:connector-curvature="0" />
    <path
       d="m 96710,44760 -40,-30 -50,-50 -20,-90 0,-170 20,-90 50,-50 40,-20 100,0 50,20 40,50 30,90 0,170 -30,90 -40,50 -50,30 -100,0"
       id="path2800"
       inkscape:connector-curvature="0" />
    <path
       d="m 97210,44470 -50,-20 -20,-30 -20,-40 0,-30 20,-50 20,-20 50,-20 100,0 40,20 30,20 20,50 0,30 -20,40 -30,30 -40,20 -100,0 -50,20 -20,30 -20,50 0,90 20,50 20,20 50,30 100,0 40,-30 30,-20 20,-50 0,-90 -20,-50 -30,-30 -40,-20"
       id="path2802"
       inkscape:connector-curvature="0" />
    <path
       d="m 95600,40800 20,-20 50,-20 120,0 40,20 30,20 20,50 0,50 -20,70 -290,290 310,0"
       id="path2804"
       inkscape:connector-curvature="0" />
    <path
       d="m 96100,41260 0,-500 280,500 0,-500"
       id="path2806"
       inkscape:connector-curvature="0" />
    <path
       d="m 96570,40760 310,0 -170,190 80,0 40,20 30,20 20,50 0,120 -20,50 -30,20 -40,30 -150,0 -40,-30 -30,-20"
       id="path2808"
       inkscape:connector-curvature="0" />
    <path
       d="m 97120,41260 100,0 50,-30 20,-20 50,-70 20,-100 0,-190 -20,-50 -30,-20 -40,-20 -100,0 -50,20 -20,20 -20,50 0,120 20,50 20,20 50,30 100,0 40,-30 30,-20 20,-50"
       id="path2810"
       inkscape:connector-curvature="0" />
    <path
       d="m 97670,40760 50,0 50,20 20,20 30,50 20,100 0,120 -20,90 -30,50 -20,20 -50,30 -50,0 -40,-30 -30,-20 -20,-50 -20,-90 0,-120 20,-100 20,-50 30,-20 40,-20"
       id="path2812"
       inkscape:connector-curvature="0" />
    <path
       d="m 98270,40760 -90,0 -50,20 -20,20 -50,80 -20,90 0,190 20,50 20,20 50,30 100,0 40,-30 30,-20 20,-50 0,-120 -20,-50 -30,-20 -40,-20 -100,0 -50,20 -20,20 -20,50"
       id="path2814"
       inkscape:connector-curvature="0" />
  </g>
  <g
     style="fill:#840000;fill-opacity:0;stroke:#840000;stroke-width:60;stroke-linecap:round;stroke-linejoin:round;stroke-opacity:1"
     id="g2820"
     transform="translate(-75660.017,-31169.593)">
    <circle
       cx="91500"
       cy="32250"
       r="250"
       id="circle2822" />
    <polyline
       fill="none;"
       points="91500,33000 91500,32500 "
       id="polyline2824" />
  </g>
  <g
     style="fill:#008484;fill-opacity:0;stroke:#008484;stroke-width:60;stroke-linecap:round;stroke-linejoin:round;stroke-opacity:1"
     id="g2826"
     transform="translate(-75660.017,-31169.593)">
    <path
       d="m 90830,31200 160,500 170,-500"
       id="path2828"
       inkscape:connector-curvature="0" />
    <path
       d="m 91610,31650 -20,20 -70,30 -50,0 -70,-30 -50,-50 -20,-40 -20,-100 0,-70 20,-90 20,-50 50,-50 70,-20 50,0 70,20 20,20"
       id="path2830"
       inkscape:connector-curvature="0" />
    <path
       d="m 92110,31650 -20,20 -70,30 -50,0 -70,-30 -50,-50 -20,-40 -20,-100 0,-70 20,-90 20,-50 50,-50 70,-20 50,0 70,20 20,20"
       id="path2832"
       inkscape:connector-curvature="0" />
  </g>
  <g
     style="fill:#840000;fill-opacity:0;stroke:#840000;stroke-width:60;stroke-linecap:round;stroke-linejoin:round;stroke-opacity:1"
     id="g2838"
     transform="translate(-75660.017,-31169.593)">
    <polyline
       fill="none;"
       points="91500,47000 91500,47500 91000,47500 91500,48000 92000,47500 91500,47500 "
       id="polyline2840" />
  </g>
  <g
     style="fill:#008484;fill-opacity:0;stroke:#008484;stroke-width:60;stroke-linecap:round;stroke-linejoin:round;stroke-opacity:1"
     id="g2842"
     transform="translate(-75660.017,-31169.593)">
    <path
       d="m 91120,48220 -50,-20 -70,0 -70,20 -50,50 -20,50 -20,90 0,70 20,100 20,40 50,50 70,30 50,0 70,-30 20,-20 0,-170 -90,0"
       id="path2844"
       inkscape:connector-curvature="0" />
    <path
       d="m 91360,48700 0,-500 280,500 0,-500"
       id="path2846"
       inkscape:connector-curvature="0" />
    <path
       d="m 91880,48700 0,-500 120,0 70,20 50,50 20,50 20,90 0,70 -20,100 -20,40 -50,50 -70,30 -120,0"
       id="path2848"
       inkscape:connector-curvature="0" />
  </g>
  <g
     style="fill:#008400;fill-opacity:0;stroke:#008400;stroke-width:60;stroke-linecap:round;stroke-linejoin:round;stroke-opacity:1"
     id="g2850"
     transform="translate(-75660.017,-31169.593)">
    <path
       d="m 95000,46000 0,-1000"
       id="path2852"
       inkscape:connector-curvature="0" />
    <path
       d="m 95000,39000 0,2000"
       id="path2854"
       inkscape:connector-curvature="0" />
    <path
       d="m 95000,34000 0,1000"
       id="path2856"
       inkscape:connector-curvature="0" />
    <path
       d="m 99500,43000 -1500,0"
       id="path2858"
       inkscape:connector-curvature="0" />
    <path
       d="m 99500,37000 0,6000"
       id="path2860"
       inkscape:connector-curvature="0" />
    <path
       d="m 99500,37000 -1500,0"
       id="path2862"
       inkscape:connector-curvature="0" />
  </g>
  <g
     style="fill:#840000;fill-opacity:0;stroke:#840000;stroke-width:100;stroke-linecap:round;stroke-linejoin:round;stroke-opacity:1"
     id="g2868"
     transform="translate(-75660.017,-31169.593)">
    <rect
       x="80000"
       y="39600"
       width="2000"
       height="800"
       rx="0"
       id="rect2870" />
  </g>
  <g
     style="fill:#840000;fill-opacity:0;stroke:#840000;stroke-width:60;stroke-linecap:round;stroke-linejoin:round;stroke-opacity:1"
     id="g2872"
     transform="translate(-75660.017,-31169.593)">
    <path
       d="m 80000,40000 -500,0"
       id="path2874"
       inkscape:connector-curvature="0" />
    <path
       d="m 82000,40000 500,0"
       id="path2876"
       inkscape:connector-curvature="0" />
  </g>
  <g
     style="fill:#008484;fill-opacity:0;stroke:#008484;stroke-width:60;stroke-linecap:round;stroke-linejoin:round;stroke-opacity:1"
     id="g2878"
     transform="translate(-75660.017,-31169.593)">
    <path
       d="m 80910,39460 -160,-240"
       id="path2880"
       inkscape:connector-curvature="0" />
    <path
       d="m 80630,39460 0,-500 190,0 50,20 20,20 20,50 0,70 -20,50 -20,20 -50,30 -190,0"
       id="path2882"
       inkscape:connector-curvature="0" />
    <path
       d="m 81340,38960 -90,0 -50,20 -20,20 -50,80 -20,90 0,190 20,50 20,20 50,30 100,0 40,-30 30,-20 20,-50 0,-120 -20,-50 -30,-20 -40,-20 -100,0 -50,20 -20,20 -20,50"
       id="path2884"
       inkscape:connector-curvature="0" />
    <path
       d="m 80410,40260 -280,0"
       id="path2886"
       inkscape:connector-curvature="0" />
    <path
       d="m 80270,40260 0,-500 -50,70 -50,50 -40,20"
       id="path2888"
       inkscape:connector-curvature="0" />
    <path
       d="m 80720,39760 50,0 50,20 20,20 30,50 20,100 0,120 -20,90 -30,50 -20,20 -50,30 -50,0 -40,-30 -30,-20 -20,-50 -20,-90 0,-120 20,-100 20,-50 30,-20 40,-20"
       id="path2890"
       inkscape:connector-curvature="0" />
    <path
       d="m 81200,39760 50,0 50,20 20,20 30,50 20,100 0,120 -20,90 -30,50 -20,20 -50,30 -50,0 -40,-30 -30,-20 -20,-50 -20,-90 0,-120 20,-100 20,-50 30,-20 40,-20"
       id="path2892"
       inkscape:connector-curvature="0" />
    <path
       d="m 81870,40260 -160,-240"
       id="path2894"
       inkscape:connector-curvature="0" />
    <path
       d="m 81590,40260 0,-500 190,0 50,20 20,20 20,50 0,70 -20,50 -20,20 -50,30 -190,0"
       id="path2896"
       inkscape:connector-curvature="0" />
  </g>
  <g
     style="fill:#008400;fill-opacity:0;stroke:#008400;stroke-width:60;stroke-linecap:round;stroke-linejoin:round;stroke-opacity:1"
     id="g2898"
     transform="translate(-75660.017,-31169.593)">
    <path
       d="m 100500,40000 -1000,0"
       id="path2900"
       inkscape:connector-curvature="0" />
  </g>
  <g
     style="fill:#008400;fill-opacity:1;stroke:#008400;stroke-width:100;stroke-linecap:round;stroke-linejoin:round;stroke-opacity:1"
     id="g2904"
     transform="translate(-75660.017,-31169.593)">
    <circle
       cx="99500"
       cy="40000"
       r="200"
       id="circle2906" />
  </g>
  <g
     style="fill:#008400;fill-opacity:0;stroke:#008400;stroke-width:60;stroke-linecap:round;stroke-linejoin:round;stroke-opacity:1"
     id="g2910"
     transform="translate(-75660.017,-31169.593)">
    <path
       d="m 92000,40000 3000,0"
       id="path2912"
       inkscape:connector-curvature="0" />
  </g>
  <g
     style="fill:#008400;fill-opacity:1;stroke:#008400;stroke-width:100;stroke-linecap:round;stroke-linejoin:round;stroke-opacity:1"
     id="g2916"
     transform="translate(-75660.017,-31169.593)">
    <circle
       cx="95000"
       cy="40000"
       r="200"
       id="circle2918" />
  </g>
  <g
     style="fill:#008400;fill-opacity:0;stroke:#008400;stroke-width:60;stroke-linecap:round;stroke-linejoin:round;stroke-opacity:1"
     id="g2922"
     transform="translate(-75660.017,-31169.593)">
    <path
       d="m 92000,40000 0,1000"
       id="path2924"
       inkscape:connector-curvature="0" />
    <path
       d="m 88000,34000 7000,0"
       id="path2926"
       inkscape:connector-curvature="0" />
    <path
       d="m 88000,46000 7000,0"
       id="path2928"
       inkscape:connector-curvature="0" />
    <path
       d="m 91500,47000 0,-1000"
       id="path2930"
       inkscape:connector-curvature="0" />
  </g>
  <g
     style="fill:#008400;fill-opacity:1;stroke:#008400;stroke-width:100;stroke-linecap:round;stroke-linejoin:round;stroke-opacity:1"
     id="g2934"
     transform="translate(-75660.017,-31169.593)">
    <circle
       cx="91500"
       cy="46000"
       r="200"
       id="circle2936" />
  </g>
  <g
     style="fill:#008400;fill-opacity:0;stroke:#008400;stroke-width:60;stroke-linecap:round;stroke-linejoin:round;stroke-opacity:1"
     id="g2940"
     transform="translate(-75660.017,-31169.593)">
    <path
       d="m 91500,33000 0,1000"
       id="path2942"
       inkscape:connector-curvature="0" />
  </g>
  <g
     style="fill:#008400;fill-opacity:1;stroke:#008400;stroke-width:100;stroke-linecap:round;stroke-linejoin:round;stroke-opacity:1"
     id="g2946"
     transform="translate(-75660.017,-31169.593)">
    <circle
       cx="91500"
       cy="34000"
       r="200"
       id="circle2948" />
  </g>
  <g
     style="fill:#ffffff;fill-opacity:0;stroke:#ffffff;stroke-width:60;stroke-linecap:round;stroke-linejoin:round;stroke-opacity:1"
     id="g2952"
     transform="translate(-75660.017,-31169.593)">
    <path
       d="m 104640,39870 0,-600 200,430 200,-430 0,600"
       id="path2954"
       inkscape:connector-curvature="0" />
    <path
       d="m 105450,39270 110,0 60,30 60,60 20,110 0,200 -20,120 -60,50 -60,30 -110,0 -60,-30 -60,-50 -30,-120 0,-200 30,-110 60,-60 60,-30"
       id="path2956"
       inkscape:connector-curvature="0" />
    <path
       d="m 105880,39270 340,0"
       id="path2958"
       inkscape:connector-curvature="0" />
    <path
       d="m 106050,39870 0,-600"
       id="path2960"
       inkscape:connector-curvature="0" />
    <path
       d="m 106390,39330 30,-30 60,-30 140,0 60,30 30,30 30,60 0,50 -30,90 -340,340 370,0"
       id="path2962"
       inkscape:connector-curvature="0" />
    <path
       d="m 106960,39700 290,0"
       id="path2964"
       inkscape:connector-curvature="0" />
    <path
       d="m 106910,39870 200,-600 200,600"
       id="path2966"
       inkscape:connector-curvature="0" />
  </g>
  <g
     style="fill:#008400;fill-opacity:0;stroke:#008400;stroke-width:60;stroke-linecap:round;stroke-linejoin:round;stroke-opacity:1"
     id="g2968"
     transform="translate(-75660.017,-31169.593)">
    <path
       d="m 78500,40000 1000,0"
       id="path2970"
       inkscape:connector-curvature="0" />
  </g>
  <g
     style="fill:#ffffff;fill-opacity:0;stroke:#ffffff;stroke-width:60;stroke-linecap:round;stroke-linejoin:round;stroke-opacity:1"
     id="g2972"
     transform="translate(-75660.017,-31169.593)">
    <path
       d="m 75690,39870 0,-600 200,430 200,-430 0,600"
       id="path2974"
       inkscape:connector-curvature="0" />
    <path
       d="m 76500,39270 110,0 60,30 60,60 20,110 0,200 -20,120 -60,50 -60,30 -110,0 -60,-30 -60,-50 -30,-120 0,-200 30,-110 60,-60 60,-30"
       id="path2976"
       inkscape:connector-curvature="0" />
    <path
       d="m 76930,39270 340,0"
       id="path2978"
       inkscape:connector-curvature="0" />
    <path
       d="m 77100,39870 0,-600"
       id="path2980"
       inkscape:connector-curvature="0" />
    <path
       d="m 77440,39330 30,-30 60,-30 140,0 60,30 30,30 30,60 0,50 -30,90 -340,340 370,0"
       id="path2982"
       inkscape:connector-curvature="0" />
    <path
       d="m 78240,39560 90,30 30,20 30,60 0,90 -30,50 -30,30 -60,30 -230,0 0,-600 200,0 60,30 30,30 30,60 0,50 -30,60 -30,30 -60,30 -200,0"
       id="path2984"
       inkscape:connector-curvature="0" />
  </g>
  <g
     style="fill:#008400;fill-opacity:0;stroke:#008400;stroke-width:60;stroke-linecap:round;stroke-linejoin:round;stroke-opacity:1"
     id="g2986"
     transform="translate(-75660.017,-31169.593)">
    <path
       d="m 104500,40000 -1000,0"
       id="path2988"
       inkscape:connector-curvature="0" />
  </g>
</svg>
